<svg width="1440" height="1000" viewBox="0 0 1440 1000" fill="none" xmlns="http://www.w3.org/2000/svg">
<g opacity="0.5">
<path d="M-512.651 160.238C-709.066 254.906 -621.08 474.783 -530.573 619.959C-418.764 798.658 -273.812 979.557 -268.275 1167.38C-262.075 1365.7 -298.046 1698.95 -185.38 1903.25C-105.631 2047.43 102.556 2211.21 322.536 2250.84C481.077 2279.39 642.002 2215.79 776.29 2176.61C924.877 2132.93 1332.88 2357.21 1428.63 2272.92C1569.49 2148.69 1519.5 1972.88 1475.7 1833.52C1432.9 1696.71 1347.72 1564.5 1227.54 1440.37C1183.27 1394.7 1132.39 1355.38 1093.44 1312.55C1060.88 1276.76 1038.55 1238.82 1035.27 1192.28C1029.92 1118.76 1025.16 1050.05 1014.38 982.374C1005.21 926.062 993.229 871.13 969.575 812.21C958.478 784.767 941.502 755.557 920.782 722.846C868.743 641.379 777.518 556.859 656.09 476.085C495.224 369.36 336.031 279.663 177.539 210.354C-76.686 99.7691 -354.573 84.1083 -512.651 160.238Z" stroke="url(#paint0_linear_43_1091)" stroke-opacity="0.2" stroke-width="6"/>
<path d="M-534.856 131.735C-742.037 231.532 -649.315 463.571 -553.687 616.737C-436.025 805.443 -282.978 996.046 -276.778 1194.36C-270.35 1403.55 -336.332 1721.26 -217.271 1936.61C-133.147 2088.88 86.9725 2249.16 318.917 2291.18C468.983 2318.21 621.275 2268.13 751.464 2235.51C901.848 2198.05 1258.28 2370.63 1361.33 2292.36C1517.59 2173.73 1510.76 2005.23 1497.25 1861.67C1484.37 1722.7 1424.09 1585.8 1321.63 1456.38C1284.25 1408.89 1239.36 1366.64 1201.89 1321.72C1171.02 1284.59 1147.41 1245.7 1136.69 1199.95C1119.4 1125.92 1097.16 1057.13 1066.79 988.986C1041.85 933.133 1013.28 879.219 975.783 822.281C958.626 796.102 935.236 768.093 908.537 736.19C844.591 660.117 746.476 577.418 621.845 494.182C465.594 390.173 311.477 294.559 153.522 212.153C-78.6937 90.69 -359.227 47.223 -534.856 131.735Z" stroke="url(#paint1_linear_43_1091)" stroke-opacity="0.2" stroke-width="6"/>
<path d="M-557.064 103.232C-775.013 208.157 -677.555 452.358 -576.804 613.515C-452.895 812.063 -291.794 1012.6 -285.596 1221.04C-278.94 1441.11 -375.246 1743 -249.872 1969.85C-161.332 2129.98 70.3262 2286.92 314.629 2331.16C456.221 2356.67 599.879 2320.11 725.928 2294.29C878.462 2263.1 1183.37 2383.76 1292.93 2311.85C1464.89 2199.11 1500.21 2037.49 1517.69 1889.85C1534.37 1748.67 1499.35 1607.13 1414.7 1471.96C1383.81 1422.82 1345.32 1377.48 1309.7 1330.3C1280.54 1291.83 1255.28 1251.94 1237.8 1207.33C1208.53 1133.03 1169.29 1063.52 1118.87 995.305C1078.14 940.141 1033.69 887.37 982.07 831.895C959.205 807.044 929.796 780.071 896.766 748.912C821.658 678.132 716.218 597.647 587.72 511.595C436.083 410.302 285.818 309.491 129.311 212.975C-82.011 82.7886 -364.28 10.5018 -557.064 103.232Z" stroke="url(#paint2_linear_43_1091)" stroke-opacity="0.2" stroke-width="6"/>
<path d="M-578.959 75.0216C-807.674 185.075 -705.44 441.21 -599.919 610.294C-469.762 818.684 -300.961 1029.09 -294.1 1248.02C-286.863 1479.03 -413.492 1765.09 -282.118 2003.15C-189.161 2171.15 54.347 2325.03 310.343 2371.15C443.814 2395.19 578.444 2372.32 700.395 2353.06C855.038 2328.38 1108.77 2397.18 1224.88 2331.39C1412.87 2224.84 1490.05 2069.59 1538.52 1917.87C1584.46 1774.19 1575.05 1628.07 1508.47 1487.68C1484.13 1436.64 1451.63 1388.38 1417.84 1339.18C1390.42 1299.14 1363.47 1258.47 1339.23 1215C1297.62 1140.36 1242.03 1070.5 1171.31 1001.69C1114.82 946.984 1054.17 895.066 988.713 841.573C959.787 817.986 924.358 792.049 884.955 761.862C799.122 695.983 685.609 617.813 553.949 529.071C406.928 430.494 259.333 324.981 105.769 214.152C-86.8619 75.3179 -369.33 -26.2189 -578.959 75.0216Z" stroke="url(#paint3_linear_43_1091)" stroke-opacity="0.2" stroke-width="6"/>
<path d="M-601.164 46.5187C-840.687 161.929 -733.364 430.289 -622.721 607.364C-486.317 825.597 -309.462 1045.93 -302.644 1275.22C-295.18 1517.11 -451.819 1787.63 -314.092 2036.97C-217.113 2212.99 38.3281 2363.38 306.682 2411.72C431.679 2434.24 557.906 2425.64 675.839 2412.49C832.862 2394.83 1035.11 2411.47 1157.82 2351.59C1361.74 2251.68 1480.52 2102.27 1559.94 1946.71C1634.78 1800.45 1650.94 1649.99 1602.48 1504.14C1584.67 1451.22 1558.17 1400.04 1526.2 1348.81C1500.13 1307.36 1471.54 1265.69 1440.57 1223.12C1386.55 1148.6 1314.43 1077.42 1223.63 1008.76C1151.77 954.347 1074.89 903.51 995.192 852.163C960.559 829.904 919.151 804.775 873.023 775.497C776.505 714.29 654.878 638.664 520.016 547.46C377.691 451.142 231.23 341.358 82.1448 215.786C-92.8529 68.1125 -374.379 -62.94 -601.164 46.5187Z" stroke="url(#paint4_linear_43_1091)" stroke-opacity="0.2" stroke-width="6"/>
<path d="M1001.87 861.613C797.048 754.037 416.712 568.432 58.5574 217.192C-100.655 60.8176 -379.079 -99.597 -623.374 18.0163C-873.664 138.555 -761.605 419.077 -646.192 604.079C-503.894 832.09 -318.985 1062.36 -311.504 1302.13C-303.459 1554.96 -490.422 1809.66 -346.694 2070.2C-245.299 2254.09 22.0336 2401.2 302.393 2451.71C582.753 2502.21 868.928 2463.76 1089.45 2370.84C1310.02 2277.7 1469.38 2133.71 1580.47 1974.43C1805.69 1651.01 1739.17 1301.88 1275.8 1014.62C1188.57 960.506 1095.46 910.749 1001.87 861.613Z" stroke="url(#paint5_linear_43_1091)" stroke-opacity="0.2" stroke-width="6"/>
</g>
<defs>
<linearGradient id="paint0_linear_43_1091" x1="616.374" y1="256.575" x2="259.187" y2="2239.42" gradientUnits="userSpaceOnUse">
<stop stop-color="#7FABEC"/>
<stop offset="1" stop-color="#7FABEC" stop-opacity="0"/>
</linearGradient>
<linearGradient id="paint1_linear_43_1091" x1="589.071" y1="237.752" x2="222.305" y2="2273.77" gradientUnits="userSpaceOnUse">
<stop stop-color="#7FABEC"/>
<stop offset="1" stop-color="#7FABEC" stop-opacity="0"/>
</linearGradient>
<linearGradient id="paint2_linear_43_1091" x1="572.498" y1="217.394" x2="195.589" y2="2309.72" gradientUnits="userSpaceOnUse">
<stop stop-color="#7FABEC"/>
<stop offset="1" stop-color="#7FABEC" stop-opacity="0"/>
</linearGradient>
<linearGradient id="paint3_linear_43_1091" x1="574.372" y1="197.836" x2="186.882" y2="2348.91" gradientUnits="userSpaceOnUse">
<stop stop-color="#7FABEC"/>
<stop offset="1" stop-color="#7FABEC" stop-opacity="0"/>
</linearGradient>
<linearGradient id="paint4_linear_43_1091" x1="587.099" y1="178.394" x2="188.623" y2="2390.45" gradientUnits="userSpaceOnUse">
<stop stop-color="#7FABEC"/>
<stop offset="1" stop-color="#7FABEC" stop-opacity="0"/>
</linearGradient>
<linearGradient id="paint5_linear_43_1091" x1="606.874" y1="158.911" x2="197.266" y2="2432.77" gradientUnits="userSpaceOnUse">
<stop stop-color="#7FABEC"/>
<stop offset="1" stop-color="#7FABEC" stop-opacity="0"/>
</linearGradient>
</defs>
</svg>
