<svg width="34" height="35" viewBox="0 0 34 35" fill="none" xmlns="http://www.w3.org/2000/svg">
<path d="M5.15111 16.4683C4.88552 16.734 4.73633 17.0943 4.73633 17.4699C4.73633 17.8456 4.88552 18.2059 5.15111 18.4715L13.1652 26.4856C13.2959 26.6209 13.4522 26.7288 13.625 26.8031C13.7979 26.8773 13.9838 26.9164 14.1719 26.918C14.36 26.9197 14.5465 26.8838 14.7206 26.8126C14.8947 26.7414 15.0529 26.6362 15.1859 26.5032C15.3189 26.3701 15.4241 26.212 15.4954 26.0379C15.5666 25.8638 15.6024 25.6772 15.6008 25.4891C15.5992 25.301 15.5601 25.1151 15.4858 24.9423C15.4116 24.7694 15.3037 24.6131 15.1684 24.4824L9.57253 18.8866L28.3334 18.8866C28.7092 18.8866 29.0695 18.7373 29.3352 18.4717C29.6009 18.206 29.7501 17.8457 29.7501 17.4699C29.7501 17.0942 29.6009 16.7339 29.3352 16.4682C29.0695 16.2025 28.7092 16.0533 28.3334 16.0533L9.57253 16.0533L15.1684 10.4574C15.4264 10.1902 15.5692 9.83239 15.566 9.46095C15.5628 9.0895 15.4138 8.73418 15.1511 8.47152C14.8884 8.20886 14.5331 8.05987 14.1617 8.05664C13.7902 8.05341 13.4324 8.19621 13.1652 8.45427L5.15111 16.4683Z" fill="black"/>
</svg>
