<svg width="1361" height="344" viewBox="0 0 1361 344" fill="none" xmlns="http://www.w3.org/2000/svg">
<g opacity="0.6">
<g clip-path="url(#clip0_40_285)">
<g clip-path="url(#clip1_40_285)">
<mask id="mask0_40_285" style="mask-type:luminance" maskUnits="userSpaceOnUse" x="0" y="4" width="1344" height="522">
<path d="M1344 4H0V526H1344V4Z" fill="white"/>
</mask>
<g mask="url(#mask0_40_285)">
<g opacity="0.3">
<path d="M75 140.583H707H75Z" fill="#565656"/>
<path d="M75 140.583H707" stroke="white"/>
</g>
<path opacity="0.3" d="M73 3.50928V349.175" stroke="white"/>
<path opacity="0.3" d="M1274 3.50928V349.175" stroke="white"/>
<path opacity="0.3" d="M1218 3.50928V349.175" stroke="white"/>
<path opacity="0.3" d="M764 3.50928V349.175" stroke="white"/>
<path opacity="0.3" d="M707 3.50928V349.175" stroke="white"/>
<g opacity="0.4">
<mask id="mask1_40_285" style="mask-type:alpha" maskUnits="userSpaceOnUse" x="0" y="3" width="73" height="347">
<g opacity="0.4">
<path d="M73 3.83423L73 349.5L0 349.5L2.28173e-05 3.83423L73 3.83423Z" fill="#565656"/>
</g>
</mask>
<g mask="url(#mask1_40_285)">
<path d="M2.64249 225.903L73.3532 179.079" stroke="black"/>
<path d="M2.64249 219.281L73.3532 172.457" stroke="black"/>
<path d="M2.64249 212.66L73.3532 165.835" stroke="black"/>
<path d="M2.64249 206.038L73.3532 159.213" stroke="black"/>
<path d="M2.64249 199.416L73.3532 152.591" stroke="black"/>
<path d="M2.64297 192.794L73.3537 145.969" stroke="black"/>
<path d="M2.64297 186.172L73.3537 139.347" stroke="black"/>
<path d="M2.64261 93.4645L73.3533 46.6402" stroke="black"/>
<path d="M2.64261 86.8425L73.3533 40.0183" stroke="black"/>
<path d="M2.64261 80.2206L73.3533 33.3963" stroke="black"/>
<path d="M2.64297 73.5986L73.3537 26.7744" stroke="black"/>
<path d="M2.64297 66.9767L73.3537 20.1524" stroke="black"/>
<path d="M2.64297 60.3547L73.3537 13.5305" stroke="black"/>
<path d="M2.64297 53.7328L73.3537 6.90852" stroke="black"/>
<path d="M2.64297 47.1108L73.3537 0.286572" stroke="black"/>
<path d="M2.64297 40.4891L73.3537 -6.33513" stroke="black"/>
<path d="M2.64297 33.8672L73.3537 -12.9571" stroke="black"/>
<path d="M2.64297 27.2452L73.3537 -19.579" stroke="black"/>
<path d="M2.64297 20.6233L73.3537 -26.201" stroke="black"/>
<path d="M2.64261 14.0013L73.3533 -32.8229" stroke="black"/>
<path d="M2.64261 7.37927L73.3533 -39.445" stroke="black"/>
<path d="M2.64297 179.55L73.3537 132.726" stroke="black"/>
<path d="M2.64297 278.879L73.3537 232.055" stroke="black"/>
<path d="M2.64297 272.257L73.3537 225.433" stroke="black"/>
<path d="M2.64297 265.635L73.3537 218.811" stroke="black"/>
<path d="M2.64297 259.013L73.3537 212.189" stroke="black"/>
<path d="M2.64297 252.391L73.3537 205.567" stroke="black"/>
<path d="M2.64249 245.769L73.3532 198.945" stroke="black"/>
<path d="M2.64249 239.147L73.3532 192.323" stroke="black"/>
<path d="M2.64249 232.525L73.3532 185.701" stroke="black"/>
<path d="M2.64297 172.928L73.3537 126.104" stroke="black"/>
<path d="M2.64297 166.306L73.3537 119.482" stroke="black"/>
<path d="M2.64297 159.684L73.3537 112.86" stroke="black"/>
<path d="M2.64297 153.062L73.3537 106.238" stroke="black"/>
<path d="M2.64297 146.44L73.3537 99.6158" stroke="black"/>
<path d="M2.64297 139.818L73.3537 92.9938" stroke="black"/>
<path d="M2.64297 371.586L73.3537 324.762" stroke="black"/>
<path d="M2.64249 364.964L73.3532 318.14" stroke="black"/>
<path d="M2.64249 358.343L73.3532 311.518" stroke="black"/>
<path d="M2.64249 351.721L73.3532 304.896" stroke="black"/>
<path d="M2.64249 345.099L73.3532 298.274" stroke="black"/>
<path d="M2.64249 338.477L73.3532 291.652" stroke="black"/>
<path d="M2.64249 331.855L73.3532 285.03" stroke="black"/>
<path d="M2.64249 325.233L73.3532 278.408" stroke="black"/>
<path d="M2.64297 384.83L73.3537 338.006" stroke="black"/>
<path d="M2.64297 378.208L73.3537 331.384" stroke="black"/>
<path d="M2.64249 318.611L73.3532 271.786" stroke="black"/>
<path d="M2.64249 311.989L73.3532 265.165" stroke="black"/>
<path d="M2.64297 305.367L73.3537 258.543" stroke="black"/>
<path d="M2.64297 298.745L73.3537 251.921" stroke="black"/>
<path d="M2.64297 292.123L73.3537 245.299" stroke="black"/>
<path d="M2.64297 285.501L73.3537 238.677" stroke="black"/>
<path d="M2.64261 133.196L73.3533 86.3719" stroke="black"/>
<path d="M2.64261 126.574L73.3533 79.75" stroke="black"/>
<path d="M2.64261 119.952L73.3533 73.128" stroke="black"/>
<path d="M2.64261 113.33L73.3533 66.5061" stroke="black"/>
<path d="M2.64261 106.708L73.3533 59.8841" stroke="black"/>
<path d="M2.64261 100.086L73.3533 53.2622" stroke="black"/>
</g>
</g>
<g opacity="0.4">
<mask id="mask2_40_285" style="mask-type:alpha" maskUnits="userSpaceOnUse" x="1218" y="3" width="56" height="347">
<g opacity="0.4">
<path d="M1274 3.83423L1274 349.5L1218 349.5L1218 3.83423L1274 3.83423Z" fill="#D9D9D9"/>
</g>
</mask>
<g mask="url(#mask2_40_285)">
<path d="M1213.64 225.903L1284.35 179.079" stroke="black"/>
<path d="M1213.64 219.281L1284.35 172.457" stroke="black"/>
<path d="M1213.64 212.66L1284.35 165.835" stroke="black"/>
<path d="M1213.64 206.038L1284.35 159.213" stroke="black"/>
<path d="M1213.64 199.416L1284.35 152.591" stroke="black"/>
<path d="M1213.64 192.794L1284.35 145.969" stroke="black"/>
<path d="M1213.64 186.172L1284.35 139.347" stroke="black"/>
<path d="M1213.64 93.4645L1284.35 46.6402" stroke="black"/>
<path d="M1213.64 86.8425L1284.35 40.0183" stroke="black"/>
<path d="M1213.64 80.2206L1284.35 33.3963" stroke="black"/>
<path d="M1213.64 73.5986L1284.35 26.7744" stroke="black"/>
<path d="M1213.64 66.9767L1284.35 20.1524" stroke="black"/>
<path d="M1213.64 60.3547L1284.35 13.5305" stroke="black"/>
<path d="M1213.64 53.7328L1284.35 6.90852" stroke="black"/>
<path d="M1213.64 47.1108L1284.35 0.286572" stroke="black"/>
<path d="M1213.64 40.4891L1284.35 -6.33513" stroke="black"/>
<path d="M1213.64 33.8672L1284.35 -12.9571" stroke="black"/>
<path d="M1213.64 27.2452L1284.35 -19.579" stroke="black"/>
<path d="M1213.64 20.6233L1284.35 -26.201" stroke="black"/>
<path d="M1213.64 14.0013L1284.35 -32.8229" stroke="black"/>
<path d="M1213.64 7.37927L1284.35 -39.445" stroke="black"/>
<path d="M1213.64 179.55L1284.35 132.726" stroke="black"/>
<path d="M1213.64 278.879L1284.35 232.055" stroke="black"/>
<path d="M1213.64 272.257L1284.35 225.433" stroke="black"/>
<path d="M1213.64 265.635L1284.35 218.811" stroke="black"/>
<path d="M1213.64 259.013L1284.35 212.189" stroke="black"/>
<path d="M1213.64 252.391L1284.35 205.567" stroke="black"/>
<path d="M1213.64 245.769L1284.35 198.945" stroke="black"/>
<path d="M1213.64 239.147L1284.35 192.323" stroke="black"/>
<path d="M1213.64 232.525L1284.35 185.701" stroke="black"/>
<path d="M1213.64 172.928L1284.35 126.104" stroke="black"/>
<path d="M1213.64 166.306L1284.35 119.482" stroke="black"/>
<path d="M1213.64 159.684L1284.35 112.86" stroke="black"/>
<path d="M1213.64 153.062L1284.35 106.238" stroke="black"/>
<path d="M1213.64 146.44L1284.35 99.6158" stroke="black"/>
<path d="M1213.64 139.818L1284.35 92.9938" stroke="black"/>
<path d="M1213.64 371.586L1284.35 324.762" stroke="black"/>
<path d="M1213.64 364.964L1284.35 318.14" stroke="black"/>
<path d="M1213.64 358.343L1284.35 311.518" stroke="black"/>
<path d="M1213.64 351.721L1284.35 304.896" stroke="black"/>
<path d="M1213.64 345.099L1284.35 298.274" stroke="black"/>
<path d="M1213.64 338.477L1284.35 291.652" stroke="black"/>
<path d="M1213.64 331.855L1284.35 285.03" stroke="black"/>
<path d="M1213.64 325.233L1284.35 278.408" stroke="black"/>
<path d="M1213.64 384.83L1284.35 338.006" stroke="black"/>
<path d="M1213.64 378.208L1284.35 331.384" stroke="black"/>
<path d="M1213.64 318.611L1284.35 271.786" stroke="black"/>
<path d="M1213.64 311.989L1284.35 265.165" stroke="black"/>
<path d="M1213.64 305.367L1284.35 258.543" stroke="black"/>
<path d="M1213.64 298.745L1284.35 251.921" stroke="black"/>
<path d="M1213.64 292.123L1284.35 245.299" stroke="black"/>
<path d="M1213.64 285.501L1284.35 238.677" stroke="black"/>
<path d="M1213.64 133.196L1284.35 86.3719" stroke="black"/>
<path d="M1213.64 126.574L1284.35 79.75" stroke="black"/>
<path d="M1213.64 119.952L1284.35 73.128" stroke="black"/>
<path d="M1213.64 113.33L1284.35 66.5061" stroke="black"/>
<path d="M1213.64 106.708L1284.35 59.8841" stroke="black"/>
<path d="M1213.64 100.086L1284.35 53.2622" stroke="black"/>
</g>
</g>
<g opacity="0.3">
<path d="M75 181.64H1274H75Z" fill="#565656"/>
<path d="M75 181.64H1274" stroke="white"/>
</g>
<path opacity="0.2" d="M75 283.286H1274" stroke="white"/>
</g>
</g>
</g>
</g>
<defs>
<clipPath id="clip0_40_285">
<path d="M0 15C0 6.16344 7.16344 -1 16 -1H1344C1352.84 -1 1360 6.16344 1360 15V323C1360 331.837 1352.84 339 1344 339H16C7.16344 339 0 331.837 0 323V15Z" fill="white"/>
</clipPath>
<clipPath id="clip1_40_285">
<rect width="1344" height="522" fill="white" transform="translate(0 4)"/>
</clipPath>
</defs>
</svg>
