<svg width="33" height="32" viewBox="0 0 33 32" fill="none" xmlns="http://www.w3.org/2000/svg">
<g clip-path="url(#clip0_15_1897)">
<path fill-rule="evenodd" clip-rule="evenodd" d="M15.0714 3.98628C14.2416 3.01145 13.1211 2.32843 11.8744 2.03754C10.6277 1.74666 9.32062 1.86325 8.14509 2.37018C6.96957 2.87712 5.9876 3.74768 5.34345 4.85399C4.69929 5.96029 4.4269 7.24401 4.56629 8.51657C2.16857 9.81943 0.5 13.1291 0.5 16.5349C0.5 19.0331 1.39829 22.0297 2.82457 23.5611C2.70043 25.0345 3.05633 26.5085 3.83909 27.7628C4.62185 29.0172 5.78946 29.9847 7.16747 30.5206C8.54547 31.0566 10.0599 31.1324 11.4845 30.7365C12.9091 30.3407 14.1674 29.4946 15.0714 28.3246V3.98628ZM17.9286 28.3246C18.8326 29.4946 20.0909 30.3407 21.5155 30.7365C22.9401 31.1324 24.4545 31.0566 25.8325 30.5206C27.2105 29.9847 28.3781 29.0172 29.1609 27.7628C29.9437 26.5085 30.2996 25.0345 30.1754 23.5611C31.5994 22.0297 32.5 19.0354 32.5 16.5349C32.5 13.1291 30.8314 9.81714 28.4337 8.51657C28.5731 7.24401 28.3007 5.96029 27.6566 4.85399C27.0124 3.74768 26.0304 2.87712 24.8549 2.37018C23.6794 1.86325 22.3723 1.74666 21.1256 2.03754C19.8789 2.32843 18.7584 3.01145 17.9286 3.98628V28.3246Z" fill="url(#paint0_linear_15_1897)"/>
<path fill-rule="evenodd" clip-rule="evenodd" d="M17.9286 14.9669C18.5137 15.392 19.1354 15.7394 19.7389 15.9954C20.0883 16.1428 20.482 16.1452 20.8333 16.0022C21.1846 15.8593 21.4647 15.5826 21.612 15.2332C21.7593 14.8837 21.7618 14.49 21.6188 14.1387C21.4758 13.7874 21.1992 13.5073 20.8497 13.36C19.5857 12.8274 18.4223 11.7943 18.0154 10.8457L17.9286 10.6766V14.9669ZM27.5034 10.7246C27.9149 10.32 28.2943 9.45601 28.4406 8.51887C29.3389 9.0103 30.1366 9.78287 30.7811 10.7406C30.5005 11.4939 30.067 12.1811 29.508 12.7589C29.3758 12.8968 29.2173 13.0068 29.0419 13.0823C28.8664 13.1579 28.6776 13.1975 28.4866 13.1989C28.2955 13.2002 28.1062 13.1632 27.9297 13.09C27.7532 13.0169 27.5932 12.9091 27.4591 12.773C27.3251 12.6369 27.2196 12.4754 27.1491 12.2978C27.0785 12.1203 27.0443 11.9304 27.0485 11.7394C27.0526 11.5485 27.095 11.3602 27.1731 11.1859C27.2513 11.0116 27.3636 10.8547 27.5034 10.7246ZM30.1389 23.5406L30.1914 23.5429L30.1754 23.5612C30.2564 24.5156 30.1365 25.4764 29.8234 26.3817C29.2147 26.3222 28.6166 26.1816 28.0451 25.9634C26.6851 25.4514 25.2063 24.4434 23.9926 22.6812C23.7777 22.369 23.6956 21.9842 23.7644 21.6115C23.8332 21.2387 24.0472 20.9086 24.3594 20.6937C24.6716 20.4788 25.0564 20.3967 25.4291 20.4655C25.8018 20.5343 26.132 20.7484 26.3469 21.0606C27.22 22.3292 28.2211 22.9783 29.0509 23.2892C29.4714 23.4492 29.8463 23.5177 30.1389 23.5406ZM15.0714 14.416C15.0326 14.8846 14.7674 15.8629 14.1571 16.7543C13.5514 17.6343 12.7057 18.304 11.5423 18.432C11.1655 18.4741 10.8209 18.6642 10.5843 18.9604C10.3477 19.2566 10.2384 19.6347 10.2806 20.0114C10.3227 20.3882 10.5128 20.7328 10.809 20.9694C11.1052 21.206 11.4832 21.3153 11.86 21.2732C13.0366 21.1446 14.1513 20.6804 15.0714 19.936V14.416ZM4.56629 8.51658C3.73658 8.96687 2.99372 9.65944 2.37886 10.5097C2.63029 10.9966 2.932 11.424 3.25658 11.7943C4.1 12.7543 5.15372 13.376 5.972 13.5634C6.34149 13.6477 6.72931 13.5817 7.05016 13.3801C7.37101 13.1784 7.5986 12.8575 7.68286 12.488C7.76712 12.1185 7.70116 11.7307 7.49948 11.4099C7.29779 11.089 6.97692 10.8614 6.60743 10.7772C6.47715 10.7474 5.92629 10.5052 5.40286 9.90858C4.90336 9.3403 4.59757 8.62786 4.52972 7.8743C4.52972 8.09068 4.54191 8.30401 4.56629 8.5143V8.51658ZM2.80172 24.1372C2.80172 24.48 2.8261 24.8175 2.87486 25.1497C3.13543 24.3497 3.56058 23.6549 3.96743 23.3349C4.26508 23.1 4.45722 22.7564 4.50159 22.3799C4.54595 22.0033 4.43891 21.6245 4.204 21.3269C3.9691 21.0292 3.62557 20.8371 3.249 20.7927C2.87243 20.7483 2.49365 20.8554 2.196 21.0903C1.98239 21.259 1.78427 21.4464 1.604 21.6503C1.94686 22.4 2.35829 23.0583 2.82458 23.5612C2.80934 23.7501 2.80172 23.9421 2.80172 24.1372Z" fill="url(#paint1_linear_15_1897)"/>
</g>
<defs>
<linearGradient id="paint0_linear_15_1897" x1="0.5" y1="16.4338" x2="32.5" y2="16.4338" gradientUnits="userSpaceOnUse">
<stop stop-color="#0085FF"/>
<stop offset="1" stop-color="#00E113"/>
</linearGradient>
<linearGradient id="paint1_linear_15_1897" x1="1.604" y1="17.128" x2="30.7811" y2="17.128" gradientUnits="userSpaceOnUse">
<stop stop-color="#0085FF"/>
<stop offset="1" stop-color="#00E113"/>
</linearGradient>
<clipPath id="clip0_15_1897">
<rect width="32" height="32" fill="white" transform="translate(0.5)"/>
</clipPath>
</defs>
</svg>
