<svg width="30" height="30" viewBox="0 0 30 30" fill="none" xmlns="http://www.w3.org/2000/svg">
<path d="M15 4.6875C18.66 4.6875 21.5625 7.53125 21.5625 10.9625C21.5625 13.1 21.0125 14.1887 20.315 15.1787C20.1567 15.4004 19.9829 15.6337 19.7938 15.8787C19.1388 16.735 18.3512 17.7663 17.7925 19.2525C17.6785 19.5589 17.5305 19.8516 17.3512 20.125L17.2812 20.225C17.1282 20.444 16.9522 20.6459 16.7562 20.8275C16.2487 21.2925 15.6388 21.5625 15 21.5625C14.3625 21.5625 13.7513 21.2925 13.2425 20.8275C13.0465 20.6455 12.8705 20.4431 12.7175 20.2238L12.6488 20.1238C12.4696 19.8507 12.3216 19.5585 12.2075 19.2525C11.6487 17.765 10.8612 16.735 10.2063 15.8775C10.028 15.6476 9.85421 15.4142 9.685 15.1775C8.98875 14.19 8.4375 13.1 8.4375 10.9613C8.4375 7.53125 11.3412 4.6875 15 4.6875ZM18.9587 21.0863C19.1987 20.7112 19.3962 20.315 19.5475 19.9112C20 18.7075 20.57 17.9587 21.195 17.14C21.4075 16.8612 21.6262 16.5737 21.8488 16.2575C22.7362 14.9975 23.4375 13.5387 23.4375 10.9613C23.4375 6.42625 19.625 2.8125 15 2.8125C10.375 2.8125 6.5625 6.42625 6.5625 10.9625C6.5625 13.5375 7.26375 14.9975 8.15125 16.2575C8.37375 16.5737 8.5925 16.8612 8.805 17.14C9.43 17.9587 10 18.7075 10.4525 19.9112C10.6038 20.315 10.8025 20.7112 11.0413 21.0863L11.3188 23.8562C11.4109 24.7685 11.8386 25.614 12.5187 26.2289C13.1989 26.8438 14.0831 27.1842 15 27.1842C15.9169 27.1842 16.8011 26.8438 17.4813 26.2289C18.1614 25.614 18.5891 24.7685 18.6812 23.8562L18.9587 21.0863ZM16.8837 22.9988L16.8162 23.6687C16.7719 24.1197 16.5614 24.538 16.2257 24.8424C15.89 25.1467 15.4531 25.3153 15 25.3153C14.5469 25.3153 14.11 25.1467 13.7743 24.8424C13.4386 24.538 13.2281 24.1197 13.1838 23.6687L13.1175 22.9988C13.68 23.2763 14.3112 23.4375 15 23.4375C15.6875 23.4375 16.32 23.275 16.8825 22.9988M3.02875 3.77375C3.1881 3.58304 3.41665 3.46341 3.66417 3.44114C3.91169 3.41887 4.15792 3.49579 4.34875 3.655L6.22375 5.2175C6.40795 5.37865 6.52183 5.60544 6.54107 5.84943C6.5603 6.09342 6.48335 6.33525 6.32667 6.52327C6.16999 6.71129 5.946 6.83058 5.70254 6.85566C5.45909 6.88074 5.21547 6.80962 5.02375 6.6575L3.14875 5.095C2.95786 4.93583 2.83798 4.70737 2.81548 4.45984C2.79298 4.21232 2.86969 3.96473 3.02875 3.77375ZM26.9688 3.775C27.0477 3.8696 27.1072 3.97884 27.1439 4.09646C27.1806 4.21408 27.1938 4.33779 27.1826 4.4605C27.1715 4.58321 27.1363 4.70252 27.079 4.81161C27.0217 4.9207 26.9435 5.01742 26.8488 5.09625L24.9738 6.65875C24.8797 6.74106 24.7701 6.80372 24.6514 6.84305C24.5327 6.88238 24.4074 6.89758 24.2828 6.88776C24.1582 6.87793 24.0368 6.84329 23.9257 6.78585C23.8147 6.72842 23.7163 6.64936 23.6363 6.55333C23.5562 6.45729 23.4962 6.34622 23.4597 6.22665C23.4233 6.10708 23.4111 5.98143 23.4239 5.85708C23.4367 5.73273 23.4743 5.6122 23.5343 5.50257C23.5944 5.39295 23.6758 5.29645 23.7737 5.21875L25.6487 3.65625C25.8397 3.49719 26.0861 3.42048 26.3336 3.44298C26.5811 3.46548 26.8096 3.58411 26.9688 3.775ZM1.5625 10.3125C1.5625 10.0639 1.66127 9.8254 1.83709 9.64959C2.0129 9.47377 2.25136 9.375 2.5 9.375H5C5.24864 9.375 5.4871 9.47377 5.66291 9.64959C5.83873 9.8254 5.9375 10.0639 5.9375 10.3125C5.9375 10.5611 5.83873 10.7996 5.66291 10.9754C5.4871 11.1512 5.24864 11.25 5 11.25H2.5C2.25136 11.25 2.0129 11.1512 1.83709 10.9754C1.66127 10.7996 1.5625 10.5611 1.5625 10.3125ZM24.0625 10.3125C24.0625 10.0639 24.1613 9.8254 24.3371 9.64959C24.5129 9.47377 24.7514 9.375 25 9.375H27.5C27.7486 9.375 27.9871 9.47377 28.1629 9.64959C28.3387 9.8254 28.4375 10.0639 28.4375 10.3125C28.4375 10.5611 28.3387 10.7996 28.1629 10.9754C27.9871 11.1512 27.7486 11.25 27.5 11.25H25C24.7514 11.25 24.5129 11.1512 24.3371 10.9754C24.1613 10.7996 24.0625 10.5611 24.0625 10.3125ZM6.4625 14.8938C6.57364 15.116 6.59196 15.3734 6.51344 15.6092C6.43492 15.845 6.26598 16.04 6.04375 16.1512L4.16875 17.0887C4.05848 17.1449 3.9382 17.1786 3.81483 17.188C3.69146 17.1975 3.56745 17.1824 3.44994 17.1436C3.33244 17.1049 3.22376 17.0433 3.13018 16.9623C3.0366 16.8814 2.95997 16.7827 2.9047 16.672C2.84944 16.5613 2.81663 16.4408 2.80817 16.3173C2.79971 16.1939 2.81577 16.07 2.85543 15.9528C2.89508 15.8356 2.95754 15.7274 3.0392 15.6345C3.12087 15.5415 3.22013 15.4657 3.33125 15.4113L5.20625 14.4738C5.4287 14.3627 5.68616 14.3446 5.92198 14.4233C6.15781 14.5021 6.35144 14.6713 6.4625 14.8938ZM23.5387 14.8938C23.6498 14.6716 23.8445 14.5027 24.08 14.4239C24.3155 14.3452 24.5727 14.3631 24.795 14.4738L26.67 15.4113C26.7811 15.4657 26.8804 15.5415 26.962 15.6345C27.0437 15.7274 27.1062 15.8356 27.1458 15.9528C27.1855 16.07 27.2015 16.1939 27.1931 16.3173C27.1846 16.4408 27.1518 16.5613 27.0965 16.672C27.0413 16.7827 26.9646 16.8814 26.8711 16.9623C26.7775 17.0433 26.6688 17.1049 26.5513 17.1436C26.4338 17.1824 26.3098 17.1975 26.1864 17.188C26.063 17.1786 25.9428 17.1449 25.8325 17.0887L23.9575 16.1512C23.7351 16.0402 23.5658 15.8453 23.4871 15.6095C23.4083 15.3737 23.4277 15.1162 23.5387 14.8938Z" fill="white"/>
</svg>
