<svg width="33" height="32" viewBox="0 0 33 32" fill="none" xmlns="http://www.w3.org/2000/svg">
<path fill-rule="evenodd" clip-rule="evenodd" d="M25.6429 11.0034C25.6519 11.2285 25.7051 11.4497 25.7996 11.6542C25.8941 11.8588 26.0279 12.0427 26.1934 12.1955C26.359 12.3483 26.553 12.4671 26.7645 12.5449C26.9759 12.6227 27.2006 12.6581 27.4257 12.6491C27.6508 12.6401 27.872 12.5869 28.0765 12.4924C28.2811 12.3979 28.465 12.2641 28.6178 12.0985C28.7706 11.933 28.8893 11.739 28.9672 11.5275C29.045 11.3161 29.0804 11.0914 29.0714 10.8663C29.0413 10.1261 29.004 9.38628 28.9594 8.64685C28.874 7.1642 28.2468 5.76461 27.1971 4.71406C26.1474 3.66351 24.7483 3.03521 23.2657 2.94856C22.1244 2.88152 20.9922 2.83199 19.8691 2.79999C19.644 2.79339 19.4198 2.83119 19.2093 2.91124C18.9988 2.99129 18.8061 3.11202 18.6422 3.26654C18.4784 3.42105 18.3466 3.60633 18.2543 3.81179C18.1621 4.01725 18.1112 4.23887 18.1046 4.46399C18.098 4.68912 18.1358 4.91334 18.2158 5.12385C18.2959 5.33436 18.4166 5.52705 18.5711 5.6909C18.7256 5.85476 18.9109 5.98658 19.1164 6.07883C19.3218 6.17108 19.5434 6.22196 19.7686 6.22856C20.8581 6.25904 21.956 6.30704 23.0623 6.37256C23.7073 6.4086 24.3165 6.68091 24.7735 7.1375C25.2305 7.5941 25.5034 8.20301 25.54 8.84799C25.5827 9.57028 25.6185 10.2888 25.6474 11.0034H25.6429ZM12.8337 29.8469C13.2822 29.851 13.7144 29.6792 14.0377 29.3684C14.3609 29.0575 14.5495 28.6324 14.563 28.1841C14.5765 27.7358 14.4137 27.3001 14.1097 26.9704C13.8056 26.6407 13.3845 26.4433 12.9366 26.4206C11.899 26.3888 10.8619 26.3423 9.82571 26.2811C9.18032 26.245 8.57086 25.9724 8.11379 25.5153C7.65671 25.0583 7.38408 24.4488 7.348 23.8034L7.29542 22.8343C7.26808 22.3834 7.06387 21.9615 6.72718 21.6604C6.3905 21.3592 5.94856 21.2031 5.49742 21.226C5.04628 21.2489 4.62241 21.4489 4.31793 21.7826C4.01346 22.1163 3.853 22.5567 3.87142 23.008L3.92628 24.0069C4.01233 25.4895 4.64007 26.8888 5.6902 27.9389C6.74033 28.9891 8.13967 29.6168 9.62228 29.7029C10.7011 29.7684 11.7716 29.8164 12.8337 29.8469Z" fill="url(#paint0_linear_15_1614)"/>
<path fill-rule="evenodd" clip-rule="evenodd" d="M8.91145 9.21372C11.2269 9.21372 12.5274 7.91086 12.5274 5.59772C12.5274 3.28457 11.2246 1.97943 8.91145 1.97943C6.5983 1.97943 5.29316 3.28229 5.29316 5.59772C5.29316 7.91315 6.59602 9.21372 8.91145 9.21372ZM14.356 15.7349C13.9354 12.8343 11.892 10.7566 8.91145 10.7566C5.93087 10.7566 3.88745 12.8366 3.46687 15.7349C3.37545 16.3589 3.89659 16.8731 4.52745 16.8731H13.2954C13.9263 16.8731 14.4474 16.3589 14.356 15.7349ZM29.5332 28.7086C29.1103 25.8103 27.0669 23.7326 24.0886 23.7326C21.1103 23.7326 19.0646 25.8126 18.6417 28.7109C18.5503 29.3349 19.0737 29.8491 19.7046 29.8491H28.4703C29.1012 29.8491 29.6246 29.3326 29.5332 28.7086ZM27.7046 18.576C27.7046 20.8914 26.4017 22.1943 24.0886 22.1943C21.7754 22.1943 20.4703 20.8914 20.4703 18.576C20.4703 16.2606 21.7732 14.9577 24.0863 14.9577C26.3994 14.9577 27.7046 16.2606 27.7046 18.576Z" fill="url(#paint1_linear_15_1614)"/>
<defs>
<linearGradient id="paint0_linear_15_1614" x1="3.87" y1="16.3231" x2="29.0728" y2="16.3231" gradientUnits="userSpaceOnUse">
<stop stop-color="#0085FF"/>
<stop offset="1" stop-color="#00E113"/>
</linearGradient>
<linearGradient id="paint1_linear_15_1614" x1="3.45642" y1="15.9143" x2="29.5436" y2="15.9143" gradientUnits="userSpaceOnUse">
<stop stop-color="#0085FF"/>
<stop offset="1" stop-color="#00E113"/>
</linearGradient>
</defs>
</svg>
