<svg width="1440" height="657" viewBox="0 0 1440 657" fill="none" xmlns="http://www.w3.org/2000/svg">
<g clip-path="url(#clip0_9_323)">
<g clip-path="url(#clip1_9_323)">
<g opacity="0.6">
<mask id="mask0_9_323" style="mask-type:luminance" maskUnits="userSpaceOnUse" x="-7" y="94" width="1440" height="562">
<path d="M1433 94H-7V656H1433V94Z" fill="white"/>
</mask>
<g mask="url(#mask0_9_323)">
<mask id="mask1_9_323" style="mask-type:alpha" maskUnits="userSpaceOnUse" x="-26" y="94" width="80" height="582">
<path d="M54 675.259L54 94H-26L-26 675.259H54Z" fill="#D9D9D9"/>
</mask>
<g mask="url(#mask1_9_323)">
<g opacity="0.3">
<path d="M-47.3571 77.9335L94.064 201.732" stroke="#01242D"/>
<path d="M-47.3571 86.6874L94.064 210.486" stroke="#01242D"/>
<path d="M-47.3571 95.4413L94.064 219.24" stroke="#01242D"/>
<path d="M-47.3571 104.195L94.064 227.994" stroke="#01242D"/>
<path d="M-47.3571 112.949L94.064 236.748" stroke="#01242D"/>
<path d="M-47.3571 121.703L94.064 245.502" stroke="#01242D"/>
<path d="M-47.3571 130.457L94.064 254.256" stroke="#01242D"/>
<path d="M-47.3571 253.012L94.064 376.81" stroke="#01242D"/>
<path d="M-47.3571 261.766L94.064 385.564" stroke="#01242D"/>
<path d="M-47.3571 270.52L94.064 394.318" stroke="#01242D"/>
<path d="M-47.3571 279.273L94.064 403.072" stroke="#01242D"/>
<path d="M-47.3571 288.027L94.064 411.826" stroke="#01242D"/>
<path d="M-47.3571 296.781L94.064 420.58" stroke="#01242D"/>
<path d="M-47.3571 305.535L94.064 429.334" stroke="#01242D"/>
<path d="M-47.3571 139.211L94.064 263.01" stroke="#01242D"/>
<path d="M-47.3571 7.90234L94.064 131.701" stroke="#01242D"/>
<path d="M-47.3571 16.6562L94.064 140.455" stroke="#01242D"/>
<path d="M-47.3571 25.4102L94.064 149.209" stroke="#01242D"/>
<path d="M-47.3571 34.1641L94.064 157.963" stroke="#01242D"/>
<path d="M-47.3571 42.918L94.064 166.717" stroke="#01242D"/>
<path d="M-47.3571 51.6719L94.064 175.471" stroke="#01242D"/>
<path d="M-47.3571 60.4257L94.064 184.225" stroke="#01242D"/>
<path d="M-47.3571 69.1796L94.064 192.978" stroke="#01242D"/>
<path d="M-47.3571 147.965L94.064 271.763" stroke="#01242D"/>
<path d="M-47.3571 156.719L94.064 280.517" stroke="#01242D"/>
<path d="M-47.3571 165.472L94.064 289.271" stroke="#01242D"/>
<path d="M-47.3571 174.226L94.064 298.025" stroke="#01242D"/>
<path d="M-47.3571 182.981L94.064 306.779" stroke="#01242D"/>
<path d="M-47.3571 191.735L94.064 315.533" stroke="#01242D"/>
<path d="M-47.3571 200.488L94.064 324.287" stroke="#01242D"/>
<path d="M-47.3571 209.242L94.064 333.041" stroke="#01242D"/>
<path d="M-47.3571 217.996L94.064 341.795" stroke="#01242D"/>
<path d="M-47.3571 226.75L94.064 350.549" stroke="#01242D"/>
<path d="M-47.3571 235.504L94.064 359.302" stroke="#01242D"/>
<path d="M-47.3571 244.258L94.064 368.056" stroke="#01242D"/>
<path d="M-47.3571 366.812L94.064 490.611" stroke="#01242D"/>
<path d="M-47.3571 375.566L94.064 499.365" stroke="#01242D"/>
<path d="M-47.3571 384.32L94.064 508.119" stroke="#01242D"/>
<path d="M-47.3571 393.074L94.064 516.873" stroke="#01242D"/>
<path d="M-47.3571 401.828L94.064 525.626" stroke="#01242D"/>
<path d="M-47.3571 410.582L94.064 534.38" stroke="#01242D"/>
<path d="M-47.3571 419.336L94.064 543.134" stroke="#01242D"/>
<path d="M-47.3571 541.89L94.064 665.689" stroke="#01242D"/>
<path d="M-47.3571 550.644L94.064 674.443" stroke="#01242D"/>
<path d="M-47.3571 559.398L94.064 683.197" stroke="#01242D"/>
<path d="M-47.3571 568.152L94.064 691.95" stroke="#01242D"/>
<path d="M-47.3571 576.906L94.064 700.704" stroke="#01242D"/>
<path d="M-47.3571 585.66L94.064 709.458" stroke="#01242D"/>
<path d="M-47.3571 594.414L94.064 718.212" stroke="#01242D"/>
<path d="M-47.3571 428.09L94.064 551.888" stroke="#01242D"/>
<path d="M-47.3571 314.289L94.064 438.087" stroke="#01242D"/>
<path d="M-47.3571 323.043L94.064 446.841" stroke="#01242D"/>
<path d="M-47.3571 331.797L94.064 455.595" stroke="#01242D"/>
<path d="M-47.3571 340.551L94.064 464.349" stroke="#01242D"/>
<path d="M-47.3571 349.305L94.064 473.103" stroke="#01242D"/>
<path d="M-47.3571 358.059L94.064 481.857" stroke="#01242D"/>
<path d="M-47.3571 436.844L94.064 560.642" stroke="#01242D"/>
<path d="M-47.3571 445.597L94.064 569.396" stroke="#01242D"/>
<path d="M-47.3571 454.351L94.064 578.15" stroke="#01242D"/>
<path d="M-47.3571 463.105L94.064 586.904" stroke="#01242D"/>
<path d="M-47.3571 471.859L94.064 595.658" stroke="#01242D"/>
<path d="M-47.3571 480.613L94.064 604.411" stroke="#01242D"/>
<path d="M-47.3571 489.367L94.064 613.165" stroke="#01242D"/>
<path d="M-47.3571 498.121L94.064 621.919" stroke="#01242D"/>
<path d="M-47.3571 506.875L94.064 630.673" stroke="#01242D"/>
<path d="M-47.3571 515.629L94.064 639.427" stroke="#01242D"/>
<path d="M-47.3571 524.383L94.064 648.181" stroke="#01242D"/>
<path d="M-47.3571 533.136L94.064 656.935" stroke="#01242D"/>
<path d="M-47.3571 655.691L94.064 779.489" stroke="#01242D"/>
<path d="M-47.3571 603.168L94.064 726.966" stroke="#01242D"/>
<path d="M-47.3571 611.921L94.064 735.72" stroke="#01242D"/>
<path d="M-47.3571 620.675L94.064 744.474" stroke="#01242D"/>
<path d="M-47.3571 629.429L94.064 753.228" stroke="#01242D"/>
<path d="M-47.3571 638.183L94.064 761.982" stroke="#01242D"/>
<path d="M-47.3571 646.937L94.064 770.735" stroke="#01242D"/>
</g>
</g>
<mask id="mask2_9_323" style="mask-type:alpha" maskUnits="userSpaceOnUse" x="1373" y="94" width="80" height="582">
<path d="M1373 675.259L1373 94L1453 94L1453 675.259L1373 675.259Z" fill="#D9D9D9"/>
</mask>
<g mask="url(#mask2_9_323)">
<g opacity="0.4">
<path d="M1474.36 77.9336L1332.94 201.732" stroke="#01242D"/>
<path d="M1474.36 86.6875L1332.94 210.486" stroke="#01242D"/>
<path d="M1474.36 95.4414L1332.94 219.24" stroke="#01242D"/>
<path d="M1474.36 104.195L1332.94 227.994" stroke="#01242D"/>
<path d="M1474.36 112.949L1332.94 236.748" stroke="#01242D"/>
<path d="M1474.36 121.703L1332.94 245.502" stroke="#01242D"/>
<path d="M1474.36 130.457L1332.94 254.256" stroke="#01242D"/>
<path d="M1474.36 253.011L1332.94 376.81" stroke="#01242D"/>
<path d="M1474.36 261.765L1332.94 385.564" stroke="#01242D"/>
<path d="M1474.36 270.519L1332.94 394.318" stroke="#01242D"/>
<path d="M1474.36 279.273L1332.94 403.072" stroke="#01242D"/>
<path d="M1474.36 288.027L1332.94 411.826" stroke="#01242D"/>
<path d="M1474.36 296.781L1332.94 420.58" stroke="#01242D"/>
<path d="M1474.36 305.535L1332.94 429.334" stroke="#01242D"/>
<path d="M1474.36 139.211L1332.94 263.01" stroke="#01242D"/>
<path d="M1474.36 7.90247L1332.94 131.701" stroke="#01242D"/>
<path d="M1474.36 16.6564L1332.94 140.455" stroke="#01242D"/>
<path d="M1474.36 25.4103L1332.94 149.209" stroke="#01242D"/>
<path d="M1474.36 34.1642L1332.94 157.963" stroke="#01242D"/>
<path d="M1474.36 42.9181L1332.94 166.717" stroke="#01242D"/>
<path d="M1474.36 51.6719L1332.94 175.471" stroke="#01242D"/>
<path d="M1474.36 60.4258L1332.94 184.225" stroke="#01242D"/>
<path d="M1474.36 69.1797L1332.94 192.978" stroke="#01242D"/>
<path d="M1474.36 147.965L1332.94 271.764" stroke="#01242D"/>
<path d="M1474.36 156.719L1332.94 280.517" stroke="#01242D"/>
<path d="M1474.36 165.473L1332.94 289.271" stroke="#01242D"/>
<path d="M1474.36 174.226L1332.94 298.025" stroke="#01242D"/>
<path d="M1474.36 182.98L1332.94 306.779" stroke="#01242D"/>
<path d="M1474.36 191.734L1332.94 315.533" stroke="#01242D"/>
<path d="M1474.36 200.488L1332.94 324.287" stroke="#01242D"/>
<path d="M1474.36 209.242L1332.94 333.041" stroke="#01242D"/>
<path d="M1474.36 217.996L1332.94 341.795" stroke="#01242D"/>
<path d="M1474.36 226.75L1332.94 350.549" stroke="#01242D"/>
<path d="M1474.36 235.504L1332.94 359.302" stroke="#01242D"/>
<path d="M1474.36 244.258L1332.94 368.056" stroke="#01242D"/>
<path d="M1474.36 366.812L1332.94 490.611" stroke="#01242D"/>
<path d="M1474.36 375.566L1332.94 499.365" stroke="#01242D"/>
<path d="M1474.36 384.32L1332.94 508.119" stroke="#01242D"/>
<path d="M1474.36 393.074L1332.94 516.873" stroke="#01242D"/>
<path d="M1474.36 401.828L1332.94 525.626" stroke="#01242D"/>
<path d="M1474.36 410.582L1332.94 534.38" stroke="#01242D"/>
<path d="M1474.36 419.335L1332.94 543.134" stroke="#01242D"/>
<path d="M1474.36 541.89L1332.94 665.689" stroke="#01242D"/>
<path d="M1474.36 550.644L1332.94 674.443" stroke="#01242D"/>
<path d="M1474.36 559.398L1332.94 683.196" stroke="#01242D"/>
<path d="M1474.36 568.152L1332.94 691.95" stroke="#01242D"/>
<path d="M1474.36 576.906L1332.94 700.704" stroke="#01242D"/>
<path d="M1474.36 585.659L1332.94 709.458" stroke="#01242D"/>
<path d="M1474.36 594.413L1332.94 718.212" stroke="#01242D"/>
<path d="M1474.36 428.089L1332.94 551.888" stroke="#01242D"/>
<path d="M1474.36 314.289L1332.94 438.087" stroke="#01242D"/>
<path d="M1474.36 323.043L1332.94 446.841" stroke="#01242D"/>
<path d="M1474.36 331.797L1332.94 455.595" stroke="#01242D"/>
<path d="M1474.36 340.55L1332.94 464.349" stroke="#01242D"/>
<path d="M1474.36 349.304L1332.94 473.103" stroke="#01242D"/>
<path d="M1474.36 358.058L1332.94 481.857" stroke="#01242D"/>
<path d="M1474.36 436.843L1332.94 560.642" stroke="#01242D"/>
<path d="M1474.36 445.597L1332.94 569.396" stroke="#01242D"/>
<path d="M1474.36 454.351L1332.94 578.15" stroke="#01242D"/>
<path d="M1474.36 463.105L1332.94 586.904" stroke="#01242D"/>
<path d="M1474.36 471.859L1332.94 595.658" stroke="#01242D"/>
<path d="M1474.36 480.613L1332.94 604.411" stroke="#01242D"/>
<path d="M1474.36 489.367L1332.94 613.165" stroke="#01242D"/>
<path d="M1474.36 498.12L1332.94 621.919" stroke="#01242D"/>
<path d="M1474.36 506.874L1332.94 630.673" stroke="#01242D"/>
<path d="M1474.36 515.628L1332.94 639.427" stroke="#01242D"/>
<path d="M1474.36 524.382L1332.94 648.181" stroke="#01242D"/>
<path d="M1474.36 533.136L1332.94 656.935" stroke="#01242D"/>
<path d="M1474.36 603.167L1332.94 726.966" stroke="#01242D"/>
<path d="M1474.36 611.921L1332.94 735.72" stroke="#01242D"/>
<path d="M1474.36 620.675L1332.94 744.474" stroke="#01242D"/>
<path d="M1474.36 629.429L1332.94 753.228" stroke="#01242D"/>
</g>
</g>
<path opacity="0.3" d="M718.5 94V656" stroke="#01242D"/>
<path opacity="0.3" d="M54.5 94V656" stroke="#01242D"/>
<path opacity="0.3" d="M1373.5 94V656" stroke="#01242D"/>
<path opacity="0.3" d="M718 493.615H1373" stroke="#01242D"/>
<path opacity="0.3" d="M718 585.531H1373" stroke="#01242D"/>
<path opacity="0.3" d="M-6 655.562H1433" stroke="#01242D"/>
</g>
</g>
<g clip-path="url(#clip2_9_323)">
<mask id="mask3_9_323" style="mask-type:luminance" maskUnits="userSpaceOnUse" x="966" y="350" width="511" height="562">
<path d="M1476.5 350.927H966.5V911.176H1476.5V350.927Z" fill="white"/>
</mask>
<g mask="url(#mask3_9_323)">
<path opacity="0.2" d="M1475.55 401.541H967.452V840.49H1475.55V401.541Z" fill="white"/>
<path opacity="0.3" d="M966.976 350.054L966.976 910.303" stroke="#01242D" stroke-opacity="0.4"/>
<path opacity="0.3" d="M966.5 401.105H1475.55" stroke="#01242D" stroke-opacity="0.4"/>
<path opacity="0.3" d="M1221.98 350.054V910.303" stroke="#01242D" stroke-opacity="0.4"/>
<g opacity="0.3">
<mask id="mask4_9_323" style="mask-type:alpha" maskUnits="userSpaceOnUse" x="967" y="350" width="255" height="52">
<g opacity="0.3">
<path d="M1221.5 350.927H967.452V401.541H1221.5V350.927Z" fill="#D9D9D9"/>
</g>
</mask>
<g mask="url(#mask4_9_323)">
<path d="M969.018 404.471L1036.3 342.764" stroke="#01242D" stroke-opacity="0.4"/>
<path d="M978.533 404.471L1045.81 342.764" stroke="#01242D" stroke-opacity="0.4"/>
<path d="M988.048 404.471L1055.33 342.764" stroke="#01242D" stroke-opacity="0.4"/>
<path d="M997.563 404.471L1064.84 342.764" stroke="#01242D" stroke-opacity="0.4"/>
<path d="M1007.08 404.471L1074.36 342.764" stroke="#01242D" stroke-opacity="0.4"/>
<path d="M1016.59 404.471L1083.87 342.764" stroke="#01242D" stroke-opacity="0.4"/>
<path d="M1026.11 404.471L1093.39 342.764" stroke="#01242D" stroke-opacity="0.4"/>
<path d="M1159.32 404.471L1226.6 342.764" stroke="#01242D" stroke-opacity="0.4"/>
<path d="M1168.83 404.471L1236.11 342.764" stroke="#01242D" stroke-opacity="0.4"/>
<path d="M1178.35 404.471L1245.63 342.764" stroke="#01242D" stroke-opacity="0.4"/>
<path d="M1187.86 404.471L1255.14 342.764" stroke="#01242D" stroke-opacity="0.4"/>
<path d="M1197.38 404.471L1264.66 342.764" stroke="#01242D" stroke-opacity="0.4"/>
<path d="M1206.89 404.471L1274.17 342.764" stroke="#01242D" stroke-opacity="0.4"/>
<path d="M1216.41 404.471L1283.69 342.764" stroke="#01242D" stroke-opacity="0.4"/>
<path d="M1035.62 404.471L1102.9 342.764" stroke="#01242D" stroke-opacity="0.4"/>
<path d="M902.414 404.471L969.694 342.764" stroke="#01242D" stroke-opacity="0.4"/>
<path d="M911.929 404.471L979.209 342.764" stroke="#01242D" stroke-opacity="0.4"/>
<path d="M921.443 404.471L988.724 342.764" stroke="#01242D" stroke-opacity="0.4"/>
<path d="M930.958 404.471L998.239 342.764" stroke="#01242D" stroke-opacity="0.4"/>
<path d="M940.473 404.471L1007.75 342.764" stroke="#01242D" stroke-opacity="0.4"/>
<path d="M949.988 404.471L1017.27 342.764" stroke="#01242D" stroke-opacity="0.4"/>
<path d="M959.503 404.471L1026.78 342.764" stroke="#01242D" stroke-opacity="0.4"/>
<path d="M1045.14 404.471L1112.42 342.764" stroke="#01242D" stroke-opacity="0.4"/>
<path d="M1054.65 404.471L1121.93 342.764" stroke="#01242D" stroke-opacity="0.4"/>
<path d="M1064.17 404.471L1131.45 342.764" stroke="#01242D" stroke-opacity="0.4"/>
<path d="M1073.68 404.471L1140.96 342.764" stroke="#01242D" stroke-opacity="0.4"/>
<path d="M1083.2 404.471L1150.48 342.764" stroke="#01242D" stroke-opacity="0.4"/>
<path d="M1092.71 404.471L1159.99 342.764" stroke="#01242D" stroke-opacity="0.4"/>
<path d="M1102.23 404.471L1169.51 342.764" stroke="#01242D" stroke-opacity="0.4"/>
<path d="M1111.74 404.471L1179.02 342.764" stroke="#01242D" stroke-opacity="0.4"/>
<path d="M1121.26 404.471L1188.54 342.764" stroke="#01242D" stroke-opacity="0.4"/>
<path d="M1130.77 404.471L1198.05 342.764" stroke="#01242D" stroke-opacity="0.4"/>
<path d="M1140.29 404.471L1207.57 342.764" stroke="#01242D" stroke-opacity="0.4"/>
<path d="M1149.8 404.471L1217.08 342.764" stroke="#01242D" stroke-opacity="0.4"/>
</g>
</g>
<g opacity="0.3">
<mask id="mask5_9_323" style="mask-type:alpha" maskUnits="userSpaceOnUse" x="1222" y="350" width="255" height="52">
<g opacity="0.3">
<path d="M1222.45 350.927H1476.5V401.541H1222.45V350.927Z" fill="#D9D9D9"/>
</g>
</mask>
<g mask="url(#mask5_9_323)">
<path d="M1474.93 404.471L1407.65 342.764" stroke="#01242D" stroke-opacity="0.4"/>
<path d="M1465.42 404.471L1398.14 342.764" stroke="#01242D" stroke-opacity="0.4"/>
<path d="M1455.9 404.471L1388.62 342.764" stroke="#01242D" stroke-opacity="0.4"/>
<path d="M1446.39 404.471L1379.11 342.764" stroke="#01242D" stroke-opacity="0.4"/>
<path d="M1436.87 404.471L1369.59 342.764" stroke="#01242D" stroke-opacity="0.4"/>
<path d="M1427.36 404.471L1360.08 342.764" stroke="#01242D" stroke-opacity="0.4"/>
<path d="M1417.84 404.471L1350.56 342.764" stroke="#01242D" stroke-opacity="0.4"/>
<path d="M1284.63 404.471L1217.35 342.764" stroke="#01242D" stroke-opacity="0.4"/>
<path d="M1275.12 404.471L1207.84 342.764" stroke="#01242D" stroke-opacity="0.4"/>
<path d="M1265.61 404.471L1198.32 342.764" stroke="#01242D" stroke-opacity="0.4"/>
<path d="M1256.09 404.471L1188.81 342.764" stroke="#01242D" stroke-opacity="0.4"/>
<path d="M1246.58 404.471L1179.29 342.764" stroke="#01242D" stroke-opacity="0.4"/>
<path d="M1237.06 404.471L1169.78 342.764" stroke="#01242D" stroke-opacity="0.4"/>
<path d="M1227.55 404.471L1160.26 342.764" stroke="#01242D" stroke-opacity="0.4"/>
<path d="M1408.33 404.471L1341.05 342.764" stroke="#01242D" stroke-opacity="0.4"/>
<path d="M1493.96 404.471L1426.68 342.764" stroke="#01242D" stroke-opacity="0.4"/>
<path d="M1484.45 404.471L1417.17 342.764" stroke="#01242D" stroke-opacity="0.4"/>
<path d="M1398.81 404.471L1331.53 342.764" stroke="#01242D" stroke-opacity="0.4"/>
<path d="M1389.3 404.471L1322.02 342.764" stroke="#01242D" stroke-opacity="0.4"/>
<path d="M1379.78 404.471L1312.5 342.764" stroke="#01242D" stroke-opacity="0.4"/>
<path d="M1370.27 404.471L1302.99 342.764" stroke="#01242D" stroke-opacity="0.4"/>
<path d="M1360.75 404.471L1293.47 342.764" stroke="#01242D" stroke-opacity="0.4"/>
<path d="M1351.24 404.471L1283.96 342.764" stroke="#01242D" stroke-opacity="0.4"/>
<path d="M1341.72 404.471L1274.44 342.764" stroke="#01242D" stroke-opacity="0.4"/>
<path d="M1332.21 404.471L1264.93 342.764" stroke="#01242D" stroke-opacity="0.4"/>
<path d="M1322.69 404.471L1255.41 342.764" stroke="#01242D" stroke-opacity="0.4"/>
<path d="M1313.18 404.471L1245.9 342.764" stroke="#01242D" stroke-opacity="0.4"/>
<path d="M1303.66 404.471L1236.38 342.764" stroke="#01242D" stroke-opacity="0.4"/>
<path d="M1294.15 404.471L1226.87 342.764" stroke="#01242D" stroke-opacity="0.4"/>
</g>
</g>
</g>
</g>
</g>
</g>
<defs>
<clipPath id="clip0_9_323">
<rect width="1440" height="657" fill="white"/>
</clipPath>
<clipPath id="clip1_9_323">
<rect width="1440" height="562" fill="white" transform="translate(-7 94)"/>
</clipPath>
<clipPath id="clip2_9_323">
<rect width="510" height="560.249" fill="white" transform="translate(966.5 350.927)"/>
</clipPath>
</defs>
</svg>
