<svg width="17" height="16" viewBox="0 0 17 16" fill="none" xmlns="http://www.w3.org/2000/svg">
<path d="M3.16668 9.33328C3.04053 9.33371 2.91684 9.29833 2.80998 9.23126C2.70313 9.1642 2.6175 9.06818 2.56305 8.95438C2.50859 8.84059 2.48754 8.71367 2.50235 8.58838C2.51715 8.4631 2.5672 8.34459 2.64668 8.24661L9.24668 1.44661C9.29619 1.38947 9.36365 1.35085 9.438 1.3371C9.51235 1.32335 9.58917 1.33529 9.65584 1.37095C9.72251 1.40661 9.77507 1.46388 9.80491 1.53335C9.83474 1.60283 9.84007 1.68038 9.82002 1.75328L8.54002 5.76661C8.50227 5.86763 8.4896 5.97629 8.50308 6.08328C8.51656 6.19028 8.55579 6.2924 8.61741 6.3809C8.67903 6.46939 8.7612 6.54162 8.85687 6.59139C8.95253 6.64115 9.05885 6.66696 9.16668 6.66661H13.8333C13.9595 6.66618 14.0832 6.70156 14.19 6.76863C14.2969 6.8357 14.3825 6.93171 14.437 7.04551C14.4914 7.15931 14.5125 7.28622 14.4977 7.41151C14.4829 7.53679 14.4328 7.65531 14.3533 7.75328L7.75335 14.5533C7.70384 14.6104 7.63638 14.649 7.56203 14.6628C7.48768 14.6765 7.41087 14.6646 7.3442 14.6289C7.27752 14.5933 7.22496 14.536 7.19513 14.4665C7.16529 14.3971 7.15996 14.3195 7.18002 14.2466L8.46002 10.2333C8.49776 10.1323 8.51043 10.0236 8.49695 9.91661C8.48347 9.80962 8.44424 9.70749 8.38262 9.619C8.321 9.5305 8.23883 9.45827 8.14317 9.40851C8.0475 9.35874 7.94119 9.33293 7.83335 9.33328H3.16668Z" stroke="white" stroke-width="1.33333" stroke-linecap="round" stroke-linejoin="round"/>
</svg>
