<svg width="30" height="30" viewBox="0 0 30 30" fill="none" xmlns="http://www.w3.org/2000/svg">
<path d="M8.3825 21.5675C8.48125 22.6287 9.30875 23.4263 10.3712 23.5069C11.8862 23.6213 14.4169 23.75 18.125 23.75C21.8331 23.75 24.3637 23.6213 25.8787 23.5063C26.9412 23.4263 27.7688 22.6287 27.8675 21.5675C27.9925 20.2231 28.125 18.0744 28.125 15C28.125 11.925 27.9925 9.77687 27.8675 8.4325C27.7688 7.37125 26.9412 6.57375 25.8787 6.49312C24.3637 6.37875 21.8338 6.25 18.125 6.25C14.4162 6.25 11.8862 6.37875 10.3719 6.49375C9.30937 6.57375 8.48125 7.37125 8.3825 8.4325C8.2575 9.77687 8.125 11.925 8.125 15C8.125 18.075 8.2575 20.2231 8.3825 21.5675Z" stroke="white" stroke-width="1.5" stroke-linejoin="round"/>
<path d="M8.125 13.75C8.125 13.75 15.385 17.5 18.125 17.5C20.8644 17.5 28.125 13.75 28.125 13.75M1.875 10.625H5M2.5 15H5M3.125 19.375H5" stroke="white" stroke-width="1.5" stroke-linecap="round" stroke-linejoin="round"/>
</svg>
