<svg width="17" height="14" viewBox="0 0 17 14" fill="none" xmlns="http://www.w3.org/2000/svg">
<path d="M1.91239 13.6666C1.45406 13.6666 1.06184 13.5035 0.735728 13.1774C0.409616 12.8513 0.246283 12.4588 0.245728 11.9999V1.99992C0.245728 1.54159 0.409061 1.14936 0.735728 0.823252C1.06239 0.497141 1.45462 0.333808 1.91239 0.333252H15.2457C15.7041 0.333252 16.0966 0.496585 16.4232 0.823252C16.7499 1.14992 16.9129 1.54214 16.9124 1.99992V11.9999C16.9124 12.4583 16.7493 12.8508 16.4232 13.1774C16.0971 13.5041 15.7046 13.6671 15.2457 13.6666H1.91239ZM8.57906 7.83325L15.2457 3.66659V1.99992L8.57906 6.16658L1.91239 1.99992V3.66659L8.57906 7.83325Z" fill="black"/>
</svg>
