<svg width="30" height="30" viewBox="0 0 30 30" fill="none" xmlns="http://www.w3.org/2000/svg">
<path d="M6.5625 9.84375C6.5625 8.97351 6.9082 8.13891 7.52356 7.52356C8.13891 6.9082 8.97351 6.5625 9.84375 6.5625C10.714 6.5625 11.5486 6.9082 12.1639 7.52356C12.7793 8.13891 13.125 8.97351 13.125 9.84375C13.125 10.714 12.7793 11.5486 12.1639 12.1639C11.5486 12.7793 10.714 13.125 9.84375 13.125C8.97351 13.125 8.13891 12.7793 7.52356 12.1639C6.9082 11.5486 6.5625 10.714 6.5625 9.84375ZM9.84375 4.6875C8.47623 4.6875 7.16472 5.23075 6.19773 6.19773C5.23075 7.16472 4.6875 8.47623 4.6875 9.84375C4.6875 11.2113 5.23075 12.5228 6.19773 13.4898C7.16472 14.4568 8.47623 15 9.84375 15C11.2113 15 12.5228 14.4568 13.4898 13.4898C14.4568 12.5228 15 11.2113 15 9.84375C15 8.47623 14.4568 7.16472 13.4898 6.19773C12.5228 5.23075 11.2113 4.6875 9.84375 4.6875ZM19.6875 11.25C19.6875 10.7527 19.885 10.2758 20.2367 9.92418C20.5883 9.57254 21.0652 9.375 21.5625 9.375C22.0598 9.375 22.5367 9.57254 22.8883 9.92418C23.24 10.2758 23.4375 10.7527 23.4375 11.25C23.4375 11.7473 23.24 12.2242 22.8883 12.5758C22.5367 12.9275 22.0598 13.125 21.5625 13.125C21.0652 13.125 20.5883 12.9275 20.2367 12.5758C19.885 12.2242 19.6875 11.7473 19.6875 11.25ZM21.5625 7.5C20.5679 7.5 19.6141 7.89509 18.9109 8.59835C18.2076 9.30161 17.8125 10.2554 17.8125 11.25C17.8125 12.2446 18.2076 13.1984 18.9109 13.9017C19.6141 14.6049 20.5679 15 21.5625 15C22.5571 15 23.5109 14.6049 24.2141 13.9017C24.9174 13.1984 25.3125 12.2446 25.3125 11.25C25.3125 10.2554 24.9174 9.30161 24.2141 8.59835C23.5109 7.89509 22.5571 7.5 21.5625 7.5ZM1.875 19.6875C1.875 18.9416 2.17132 18.2262 2.69876 17.6988C3.22621 17.1713 3.94158 16.875 4.6875 16.875H15C15.7459 16.875 16.4613 17.1713 16.9887 17.6988C17.5162 18.2262 17.8125 18.9416 17.8125 19.6875V19.8994C17.8103 19.9868 17.8041 20.0741 17.7937 20.1609C17.775 20.3231 17.7403 20.5434 17.6719 20.8041C17.4909 21.4913 17.1723 22.1346 16.7353 22.695C15.6384 24.1031 13.575 25.3125 9.84375 25.3125C6.1125 25.3125 4.05 24.1031 2.95219 22.695C2.51491 22.1346 2.19596 21.4913 2.01469 20.8041C1.94357 20.5282 1.89776 20.2464 1.87781 19.9622L1.87594 19.8994V19.8778L1.875 19.8703V19.6875ZM3.75 19.8544V19.8656C3.75 19.8819 3.75281 19.9113 3.75844 19.9538C3.76781 20.0381 3.7875 20.1694 3.82969 20.3325C3.91406 20.6587 4.08562 21.0994 4.43062 21.5428C5.09156 22.3903 6.54375 23.4375 9.84375 23.4375C13.1438 23.4375 14.5969 22.3903 15.2569 21.5437C15.5365 21.1846 15.7406 20.7726 15.8569 20.3325C15.8968 20.1794 15.9238 20.0232 15.9375 19.8656L15.9384 19.8544V19.6875C15.9384 19.4389 15.8397 19.2004 15.6639 19.0246C15.488 18.8488 15.2496 18.75 15.0009 18.75H4.6875C4.43886 18.75 4.2004 18.8488 4.02459 19.0246C3.84877 19.2004 3.75 19.4389 3.75 19.6875V19.8544ZM18.2597 22.9613C19.1316 23.2575 20.2162 23.4375 21.5625 23.4375C24.5634 23.4375 26.2688 22.5441 27.1997 21.4453C27.6525 20.9109 27.8841 20.3691 28.0012 19.9528C28.0643 19.7296 28.1048 19.5007 28.1222 19.2694L28.1231 19.2356L28.1241 19.215V19.1794C28.1242 18.8768 28.0647 18.5772 27.949 18.2976C27.8333 18.018 27.6636 17.764 27.4497 17.55C27.2358 17.336 26.9819 17.1662 26.7023 17.0504C26.4228 16.9346 26.1232 16.875 25.8206 16.875H18.1434C18.6122 17.3991 18.9525 18.0403 19.1138 18.75H25.8206C26.055 18.75 26.2444 18.9366 26.25 19.1681L26.2463 19.2094C26.235 19.2885 26.2187 19.3667 26.1975 19.4437C26.1394 19.65 26.0194 19.9388 25.7691 20.2341C25.2937 20.7956 24.1866 21.5625 21.5625 21.5625C20.4703 21.5625 19.6416 21.4294 19.0116 21.2344C18.8453 21.8432 18.592 22.4248 18.2597 22.9613Z" fill="white"/>
</svg>
