<svg width="30" height="30" viewBox="0 0 30 30" fill="none" xmlns="http://www.w3.org/2000/svg">
<g clip-path="url(#clip0_134_45)">
<path d="M27.0996 10.0781C27.5391 10.3223 27.9395 10.6201 28.3008 10.9717C28.6621 11.3232 28.9648 11.7139 29.209 12.1436C29.4531 12.5732 29.6484 13.0273 29.7949 13.5059C29.9414 13.9844 30.0098 14.4824 30 15H28.125C28.125 14.4922 28.0273 14.0088 27.832 13.5498C27.6367 13.0908 27.3682 12.6953 27.0264 12.3633C26.6846 12.0312 26.2842 11.7627 25.8252 11.5576C25.3662 11.3525 24.8828 11.25 24.375 11.25C23.8574 11.25 23.374 11.3477 22.9248 11.543C22.4756 11.7383 22.0801 12.0068 21.7383 12.3486C21.3965 12.6904 21.1279 13.0908 20.9326 13.5498C20.7373 14.0088 20.6348 14.4922 20.625 15C20.625 15.8887 20.4248 16.7334 20.0244 17.5342C19.624 18.335 19.0625 18.999 18.3398 19.5264C18.9746 19.8486 19.5459 20.2441 20.0537 20.7129C20.5615 21.1816 21.001 21.709 21.3721 22.2949C21.7432 22.8809 22.0215 23.5059 22.207 24.1699C22.3926 24.834 22.4902 25.5273 22.5 26.25H20.625C20.625 25.4785 20.4785 24.751 20.1855 24.0674C19.8926 23.3838 19.4873 22.7881 18.9697 22.2803C18.4521 21.7725 17.8564 21.3721 17.1826 21.0791C16.5088 20.7861 15.7812 20.6348 15 20.625C14.2285 20.625 13.501 20.7715 12.8174 21.0645C12.1338 21.3574 11.5381 21.7627 11.0303 22.2803C10.5225 22.7979 10.1221 23.3936 9.8291 24.0674C9.53613 24.7412 9.38477 25.4688 9.375 26.25H7.5C7.5 25.5371 7.59766 24.8486 7.79297 24.1846C7.98828 23.5205 8.2666 22.8955 8.62793 22.3096C8.98926 21.7236 9.42383 21.1963 9.93164 20.7275C10.4395 20.2588 11.0156 19.8584 11.6602 19.5264C10.9473 18.999 10.3906 18.335 9.99023 17.5342C9.58984 16.7334 9.38477 15.8887 9.375 15C9.375 14.4922 9.27734 14.0088 9.08203 13.5498C8.88672 13.0908 8.61816 12.6953 8.27637 12.3633C7.93457 12.0312 7.53418 11.7627 7.0752 11.5576C6.61621 11.3525 6.13281 11.25 5.625 11.25C5.10742 11.25 4.62402 11.3477 4.1748 11.543C3.72559 11.7383 3.33008 12.0068 2.98828 12.3486C2.64648 12.6904 2.37793 13.0908 2.18262 13.5498C1.9873 14.0088 1.88477 14.4922 1.875 15H0C0 14.4922 0.0683594 13.999 0.205078 13.5205C0.341797 13.042 0.532227 12.5879 0.776367 12.1582C1.02051 11.7285 1.32812 11.3379 1.69922 10.9863C2.07031 10.6348 2.4707 10.332 2.90039 10.0781C2.57812 9.73633 2.3291 9.34082 2.15332 8.8916C1.97754 8.44238 1.88477 7.97852 1.875 7.5C1.875 6.99219 1.97266 6.50879 2.16797 6.0498C2.36328 5.59082 2.63184 5.19531 2.97363 4.86328C3.31543 4.53125 3.71094 4.2627 4.16016 4.05762C4.60938 3.85254 5.09766 3.75 5.625 3.75C6.13281 3.75 6.61621 3.84766 7.0752 4.04297C7.53418 4.23828 7.92969 4.50684 8.26172 4.84863C8.59375 5.19043 8.8623 5.59082 9.06738 6.0498C9.27246 6.50879 9.375 6.99219 9.375 7.5C9.375 7.97852 9.28711 8.44238 9.11133 8.8916C8.93555 9.34082 8.68164 9.73633 8.34961 10.0781C9.15039 10.5176 9.80469 11.123 10.3125 11.8945C10.8398 11.1133 11.5137 10.498 12.334 10.0488C13.1543 9.59961 14.043 9.375 15 9.375C15.9473 9.375 16.8311 9.59961 17.6514 10.0488C18.4717 10.498 19.1504 11.1133 19.6875 11.8945C20.1953 11.123 20.8496 10.5176 21.6504 10.0781C21.3281 9.73633 21.0791 9.34082 20.9033 8.8916C20.7275 8.44238 20.6348 7.97852 20.625 7.5C20.625 6.99219 20.7227 6.50879 20.918 6.0498C21.1133 5.59082 21.3818 5.19531 21.7236 4.86328C22.0654 4.53125 22.4609 4.2627 22.9102 4.05762C23.3594 3.85254 23.8477 3.75 24.375 3.75C24.8828 3.75 25.3662 3.84766 25.8252 4.04297C26.2842 4.23828 26.6797 4.50684 27.0117 4.84863C27.3438 5.19043 27.6123 5.59082 27.8174 6.0498C28.0225 6.50879 28.125 6.99219 28.125 7.5C28.125 7.97852 28.0371 8.44238 27.8613 8.8916C27.6855 9.34082 27.4316 9.73633 27.0996 10.0781ZM3.75 7.5C3.75 7.76367 3.79883 8.00781 3.89648 8.23242C3.99414 8.45703 4.12598 8.65234 4.29199 8.81836C4.45801 8.98438 4.6582 9.12109 4.89258 9.22852C5.12695 9.33594 5.37109 9.38477 5.625 9.375C5.88867 9.375 6.13281 9.32617 6.35742 9.22852C6.58203 9.13086 6.77734 8.99902 6.94336 8.83301C7.10938 8.66699 7.24609 8.4668 7.35352 8.23242C7.46094 7.99805 7.50977 7.75391 7.5 7.5C7.5 7.23633 7.45117 6.99219 7.35352 6.76758C7.25586 6.54297 7.12402 6.34766 6.95801 6.18164C6.79199 6.01562 6.5918 5.87891 6.35742 5.77148C6.12305 5.66406 5.87891 5.61523 5.625 5.625C5.36133 5.625 5.11719 5.67383 4.89258 5.77148C4.66797 5.86914 4.47266 6.00098 4.30664 6.16699C4.14062 6.33301 4.00391 6.5332 3.89648 6.76758C3.78906 7.00195 3.74023 7.24609 3.75 7.5ZM15 18.75C15.5078 18.75 15.9912 18.6523 16.4502 18.457C16.9092 18.2617 17.3047 17.9932 17.6367 17.6514C17.9688 17.3096 18.2373 16.9141 18.4424 16.4648C18.6475 16.0156 18.75 15.5273 18.75 15C18.75 14.4922 18.6523 14.0088 18.457 13.5498C18.2617 13.0908 17.9932 12.6953 17.6514 12.3633C17.3096 12.0312 16.9092 11.7627 16.4502 11.5576C15.9912 11.3525 15.5078 11.25 15 11.25C14.4824 11.25 13.999 11.3477 13.5498 11.543C13.1006 11.7383 12.7051 12.0068 12.3633 12.3486C12.0215 12.6904 11.7529 13.0908 11.5576 13.5498C11.3623 14.0088 11.2598 14.4922 11.25 15C11.25 15.5176 11.3477 16.001 11.543 16.4502C11.7383 16.8994 12.0068 17.2949 12.3486 17.6367C12.6904 17.9785 13.0859 18.2471 13.5352 18.4424C13.9844 18.6377 14.4727 18.7402 15 18.75ZM22.5 7.5C22.5 7.76367 22.5488 8.00781 22.6465 8.23242C22.7441 8.45703 22.876 8.65234 23.042 8.81836C23.208 8.98438 23.4082 9.12109 23.6426 9.22852C23.877 9.33594 24.1211 9.38477 24.375 9.375C24.6387 9.375 24.8828 9.32617 25.1074 9.22852C25.332 9.13086 25.5273 8.99902 25.6934 8.83301C25.8594 8.66699 25.9961 8.4668 26.1035 8.23242C26.2109 7.99805 26.2598 7.75391 26.25 7.5C26.25 7.23633 26.2012 6.99219 26.1035 6.76758C26.0059 6.54297 25.874 6.34766 25.708 6.18164C25.542 6.01562 25.3418 5.87891 25.1074 5.77148C24.873 5.66406 24.6289 5.61523 24.375 5.625C24.1113 5.625 23.8672 5.67383 23.6426 5.77148C23.418 5.86914 23.2227 6.00098 23.0566 6.16699C22.8906 6.33301 22.7539 6.5332 22.6465 6.76758C22.5391 7.00195 22.4902 7.24609 22.5 7.5Z" fill="white"/>
</g>
<defs>
<clipPath id="clip0_134_45">
<rect width="30" height="30" fill="white"/>
</clipPath>
</defs>
</svg>
