<svg width="16" height="16" viewBox="0 0 16 16" fill="none" xmlns="http://www.w3.org/2000/svg">
<path d="M14.2041 15.5C12.468 15.5 10.7494 15.125 9.04827 14.375C7.34716 13.625 5.80188 12.5556 4.41243 11.1667C3.02299 9.77778 1.95355 8.23611 1.2041 6.54167C0.454657 4.84722 0.0796571 3.125 0.0791016 1.375V0.5H4.99577L5.7666 4.6875L3.3916 7.08333C3.69716 7.625 4.03743 8.13889 4.41243 8.625C4.78743 9.11111 5.19021 9.5625 5.62077 9.97917C6.02355 10.3819 6.46466 10.7675 6.9441 11.1358C7.42355 11.5042 7.94077 11.8478 8.49577 12.1667L10.9124 9.75L15.0791 10.6042V15.5H14.2041Z" fill="black"/>
</svg>
