<svg width="15" height="17" viewBox="0 0 15 17" fill="none" xmlns="http://www.w3.org/2000/svg">
<path d="M12.2932 2.41989C9.68989 -0.140941 5.46906 -0.140941 2.86572 2.41989C2.24763 3.02375 1.75648 3.74509 1.42115 4.54148C1.08583 5.33788 0.913086 6.19328 0.913086 7.05739C0.913086 7.92151 1.08583 8.7769 1.42115 9.5733C1.75648 10.3697 2.24763 11.091 2.86572 11.6949L7.57906 16.3324L12.2932 11.6949C12.9113 11.091 13.4025 10.3697 13.7378 9.5733C14.0731 8.7769 14.2459 7.92151 14.2459 7.05739C14.2459 6.19328 14.0731 5.33788 13.7378 4.54148C13.4025 3.74509 12.9113 3.02375 12.2932 2.41989ZM7.57906 9.24906C7.02239 9.24906 6.49989 9.03239 6.10572 8.63906C5.71552 8.24802 5.49637 7.71815 5.49637 7.16573C5.49637 6.6133 5.71552 6.08343 6.10572 5.69239C6.49906 5.29906 7.02239 5.08239 7.57906 5.08239C8.13572 5.08239 8.65906 5.29906 9.05239 5.69239C9.4426 6.08343 9.66175 6.6133 9.66175 7.16573C9.66175 7.71815 9.4426 8.24802 9.05239 8.63906C8.65906 9.03239 8.13572 9.24906 7.57906 9.24906Z" fill="black"/>
</svg>
