<svg width="20" height="20" viewBox="0 0 20 20" fill="none" xmlns="http://www.w3.org/2000/svg">
<path d="M10 2C9.80109 2 9.61032 2.07902 9.46967 2.21967C9.32902 2.36032 9.25 2.55109 9.25 2.75C9.25 2.94891 9.32902 3.13968 9.46967 3.28033C9.61032 3.42098 9.80109 3.5 10 3.5C11.7239 3.5 13.3772 4.18482 14.5962 5.40381C15.8152 6.62279 16.5 8.27609 16.5 10C16.5 11.7239 15.8152 13.3772 14.5962 14.5962C13.3772 15.8152 11.7239 16.5 10 16.5C9.80109 16.5 9.61032 16.579 9.46967 16.7197C9.32902 16.8603 9.25 17.0511 9.25 17.25C9.25 17.4489 9.32902 17.6397 9.46967 17.7803C9.61032 17.921 9.80109 18 10 18C12.1217 18 14.1566 17.1571 15.6569 15.6569C17.1571 14.1566 18 12.1217 18 10C18 7.87827 17.1571 5.84344 15.6569 4.34315C14.1566 2.84285 12.1217 2 10 2Z" fill="#788BA5"/>
<path d="M2.75 9.24997C2.55109 9.24997 2.36032 9.32899 2.21967 9.46964C2.07902 9.61029 2 9.80106 2 9.99997C2 10.1989 2.07902 10.3896 2.21967 10.5303C2.36032 10.671 2.55109 10.75 2.75 10.75H9.44L7.72 12.47C7.64631 12.5386 7.58721 12.6214 7.54622 12.7134C7.50523 12.8054 7.48319 12.9047 7.48141 13.0054C7.47963 13.1061 7.49816 13.2062 7.53588 13.2996C7.5736 13.393 7.62974 13.4778 7.70096 13.549C7.77218 13.6202 7.85701 13.6764 7.9504 13.7141C8.04379 13.7518 8.14382 13.7703 8.24452 13.7686C8.34522 13.7668 8.44454 13.7447 8.53654 13.7037C8.62854 13.6628 8.71134 13.6037 8.78 13.53L11.78 10.53C11.9205 10.3893 11.9993 10.1987 11.9993 9.99997C11.9993 9.80122 11.9205 9.61059 11.78 9.46997L8.78 6.46997C8.63783 6.33749 8.44978 6.26537 8.25548 6.26879C8.06118 6.27222 7.87579 6.35093 7.73838 6.48835C7.60097 6.62576 7.52225 6.81114 7.51883 7.00545C7.5154 7.19975 7.58752 7.38779 7.72 7.52997L9.44 9.24997H2.75Z" fill="#788BA5"/>
</svg>
