<svg width="62" height="63" viewBox="0 0 62 63" fill="none" xmlns="http://www.w3.org/2000/svg">
<g clip-path="url(#clip0_176_684)">
<path d="M59.8181 31.9637C60.7756 30.8487 61.4466 29.5169 61.7729 28.0838C62.0992 26.6507 62.0709 25.1597 61.6904 23.7401C61.31 22.3204 60.589 21.015 59.5898 19.9372C58.5907 18.8593 57.3437 18.0414 55.9569 17.5546C56.2286 16.1102 56.1438 14.6212 55.7098 13.217C55.2757 11.8127 54.5056 10.5356 53.4663 9.49636C52.4269 8.45712 51.1497 7.68719 49.7454 7.25335C48.3411 6.81951 46.8521 6.73487 45.4077 7.00677C44.9213 5.6197 44.1036 4.37232 43.0257 3.37294C41.9478 2.37356 40.6422 1.6524 39.2224 1.27205C37.8025 0.891703 36.3113 0.863675 34.8782 1.1904C33.445 1.51712 32.1133 2.18872 30.9986 3.14689C29.8836 2.18938 28.5518 1.51839 27.1187 1.19211C25.6857 0.865842 24.1946 0.894146 22.775 1.27457C21.3554 1.65499 20.05 2.37605 18.9721 3.37518C17.8942 4.37432 17.0764 5.62136 16.5895 7.00812C15.1452 6.73665 13.6564 6.82167 12.2523 7.2558C10.8483 7.68993 9.57133 8.46007 8.53226 9.4994C7.4932 10.5387 6.72339 11.8159 6.28962 13.22C5.85585 14.6242 5.77121 16.113 6.04304 17.5573C4.65628 18.0441 3.40924 18.862 2.41011 19.9398C1.41097 21.0177 0.689911 22.3231 0.309487 23.7428C-0.0709374 25.1624 -0.0992457 26.6534 0.227027 28.0865C0.553299 29.5195 1.22431 30.8514 2.18181 31.9664C1.22402 33.0814 0.552802 34.4133 0.226436 35.8465C-0.0999288 37.2797 -0.071596 38.7709 0.308995 40.1907C0.689586 41.6104 1.41092 42.9159 2.4104 43.9937C3.40988 45.0715 4.65731 45.889 6.04439 46.3755C5.77232 47.8198 5.85686 49.3087 6.29069 50.7129C6.72451 52.1172 7.49451 53.3943 8.53384 54.4335C9.57316 55.4727 10.8504 56.2426 12.2547 56.6762C13.659 57.1098 15.1479 57.1942 16.5922 56.922C17.0791 58.3087 17.8969 59.5558 18.9748 60.5549C20.0527 61.554 21.358 62.2751 22.7777 62.6555C24.1973 63.0359 25.6883 63.0642 27.1214 62.738C28.5545 62.4117 29.8863 61.7407 31.0013 60.7832C32.1163 61.741 33.4482 62.4122 34.8814 62.7386C36.3146 63.0649 37.8058 63.0366 39.2256 62.656C40.6454 62.2754 41.9508 61.5541 43.0286 60.5546C44.1064 59.5551 44.924 58.3077 45.4104 56.9206C46.8548 57.1926 48.3437 57.108 49.748 56.6742C51.1522 56.2403 52.4294 55.4704 53.4687 54.4311C54.508 53.3918 55.278 52.1146 55.7118 50.7104C56.1456 49.3061 56.2302 47.8172 55.9582 46.3728C57.3451 45.8861 58.5922 45.0682 59.5914 43.9903C60.5906 42.9124 61.3116 41.6069 61.692 40.1872C62.0723 38.7674 62.1004 37.2764 61.7738 35.8433C61.4473 34.4102 60.776 33.0785 59.8181 31.9637Z" fill="#18C07A"/>
<path d="M25.4357 43.7972L16.8211 35.188C16.4942 34.8605 16.3105 34.4167 16.3105 33.954C16.3105 33.4913 16.4942 33.0475 16.8211 32.72L17.8677 31.6721C18.1952 31.3451 18.639 31.1615 19.1017 31.1615C19.5644 31.1615 20.0083 31.3451 20.3357 31.6721L26.5978 37.9301L41.3454 22.2581C41.6628 21.9214 42.1007 21.7244 42.5632 21.7103C43.0257 21.6962 43.4748 21.8662 43.8121 22.1829L44.8869 23.1972C45.224 23.5146 45.4213 23.9529 45.4354 24.4157C45.4495 24.8785 45.2793 25.3279 44.9621 25.6653L27.9453 43.7582C27.7851 43.929 27.5922 44.0658 27.378 44.1605C27.1639 44.2552 26.9329 44.3059 26.6988 44.3095C26.4646 44.3131 26.2322 44.2697 26.0152 44.1816C25.7982 44.0936 25.6011 43.9629 25.4357 43.7972Z" fill="white"/>
</g>
<defs>
<clipPath id="clip0_176_684">
<rect width="62" height="62" fill="white" transform="translate(0 0.964966)"/>
</clipPath>
</defs>
</svg>
