<svg width="33" height="32" viewBox="0 0 33 32" fill="none" xmlns="http://www.w3.org/2000/svg">
<g clip-path="url(#clip0_15_1902)">
<path fill-rule="evenodd" clip-rule="evenodd" d="M6.72857 6.22399C4.59143 8.36114 3.35714 11.5954 3.35714 15.9977C3.35714 20.4 4.59143 23.6343 6.72857 25.7714C8.86571 27.9086 12.1 29.1428 16.5 29.1428C20.9 29.1428 24.1366 27.9086 26.2737 25.7714C28.4109 23.6343 29.6474 20.4 29.6474 16C29.6474 15.6211 29.7979 15.2577 30.0658 14.9898C30.3338 14.7219 30.6971 14.5714 31.076 14.5714C31.4549 14.5714 31.8182 14.7219 32.0862 14.9898C32.3541 15.2577 32.5046 15.6211 32.5046 16C32.5046 20.9257 31.1149 24.976 28.2989 27.7943C25.476 30.6103 21.4257 32 16.5 32C11.5743 32 7.52171 30.6126 4.70571 27.7943C1.88971 24.976 0.5 20.9234 0.5 16C0.5 11.0766 1.88971 7.02399 4.70571 4.20571C7.52171 1.38742 11.5789 -0.00457764 16.5 -0.00457764C16.8789 -0.00457764 17.2422 0.145932 17.5102 0.413841C17.7781 0.68175 17.9286 1.04511 17.9286 1.42399C17.9286 1.80287 17.7781 2.16624 17.5102 2.43415C17.2422 2.70206 16.8789 2.85257 16.5 2.85257C12.1023 2.85257 8.86571 4.08685 6.72857 6.22399ZM15.5629 8.34514C15.6469 8.7143 15.581 9.10173 15.3795 9.42231C15.1781 9.7429 14.8576 9.9704 14.4886 10.0549C13.0897 10.3726 12.0977 11.0309 11.4394 11.9474C10.7674 12.8823 10.3514 14.2103 10.3514 15.9977C10.3514 18.1577 10.9571 19.6457 11.9057 20.5943C12.852 21.5429 14.34 22.1486 16.5 22.1486C18.3789 22.1486 19.7457 21.6914 20.6874 20.96C21.6131 20.2377 22.2646 19.1451 22.5274 17.584C22.5583 17.3989 22.6254 17.2218 22.7248 17.0627C22.8242 16.9035 22.9539 16.7655 23.1066 16.6565C23.2593 16.5475 23.432 16.4697 23.6148 16.4274C23.7976 16.3852 23.9869 16.3794 24.172 16.4103C24.357 16.4412 24.5342 16.5083 24.6933 16.6076C24.8525 16.707 24.9905 16.8368 25.0995 16.9895C25.2084 17.1422 25.2863 17.3149 25.3285 17.4977C25.3708 17.6805 25.3766 17.8698 25.3457 18.0548C24.9869 20.1989 24.0246 21.984 22.4406 23.2137C20.8703 24.4343 18.8291 25.0034 16.5023 25.0034C13.8143 25.0034 11.5126 24.2423 9.88514 22.6148C8.25771 20.9874 7.49429 18.6834 7.49429 15.9977C7.49429 13.7783 8.01086 11.8217 9.11714 10.2811C10.2371 8.72685 11.8691 7.72114 13.8531 7.26857C14.0361 7.22698 14.2254 7.22184 14.4104 7.25344C14.5953 7.28504 14.7722 7.35276 14.931 7.45273C15.0897 7.5527 15.2273 7.68296 15.3357 7.83608C15.4441 7.9892 15.5213 8.16218 15.5629 8.34514ZM22.26 12.2606L17.5126 17.008C17.3799 17.1407 17.2224 17.2459 17.049 17.3177C16.8757 17.3895 16.6899 17.4265 16.5023 17.4265C16.3147 17.4265 16.1289 17.3895 15.9555 17.3177C15.7822 17.2459 15.6247 17.1407 15.492 17.008C15.3593 16.8753 15.2541 16.7178 15.1823 16.5445C15.1105 16.3711 15.0735 16.1853 15.0735 15.9977C15.0735 15.8101 15.1105 15.6243 15.1823 15.4509C15.2541 15.2776 15.3593 15.1201 15.492 14.9874L20.2371 10.24L20.1617 9.98856C19.8553 8.99586 19.8254 7.93841 20.0751 6.92995C20.3248 5.92149 20.8447 5.00019 21.5789 4.26514L25.5103 0.333708C25.6497 0.194069 25.8228 0.0928959 26.0129 0.0400369C26.203 -0.0128221 26.4036 -0.0155665 26.595 0.0320706C26.7865 0.0797078 26.9624 0.176104 27.1056 0.311876C27.2487 0.447649 27.3543 0.618173 27.412 0.806851L28.42 4.07999L31.6931 5.08799C31.8818 5.1457 32.0523 5.25128 32.1881 5.39444C32.3239 5.5376 32.4203 5.71348 32.4679 5.90495C32.5156 6.09641 32.5128 6.29696 32.46 6.48705C32.4071 6.67714 32.3059 6.85031 32.1663 6.98971L28.2349 10.9211C27.4998 11.6553 26.5785 12.1752 25.57 12.4249C24.5616 12.6746 23.5041 12.6447 22.5114 12.3383L22.26 12.2606Z" fill="url(#paint0_linear_15_1902)"/>
</g>
<defs>
<linearGradient id="paint0_linear_15_1902" x1="0.5" y1="15.9977" x2="32.5046" y2="15.9977" gradientUnits="userSpaceOnUse">
<stop stop-color="#0085FF"/>
<stop offset="1" stop-color="#00E113"/>
</linearGradient>
<clipPath id="clip0_15_1902">
<rect width="32" height="32" fill="white" transform="translate(0.5)"/>
</clipPath>
</defs>
</svg>
