<svg width="30" height="30" viewBox="0 0 30 30" fill="none" xmlns="http://www.w3.org/2000/svg">
<path d="M26.748 7.39102L26.2019 7.07578C26.266 6.73659 26.266 6.38841 26.2019 6.04922L26.748 5.73398C26.9634 5.60966 27.1205 5.40487 27.1849 5.16467C27.2493 4.92446 27.2157 4.66851 27.0913 4.45312C26.967 4.23774 26.7622 4.08056 26.522 4.01617C26.2818 3.95178 26.0259 3.98545 25.8105 4.10977L25.2632 4.42617C25.0013 4.20143 24.7002 4.02702 24.3749 3.91172V3.28125C24.3749 3.03261 24.2762 2.79415 24.1004 2.61834C23.9245 2.44252 23.6861 2.34375 23.4374 2.34375C23.1888 2.34375 22.9503 2.44252 22.7745 2.61834C22.5987 2.79415 22.4999 3.03261 22.4999 3.28125V3.91172C22.1747 4.02702 21.8735 4.20143 21.6117 4.42617L21.0644 4.10977C20.9577 4.04821 20.84 4.00826 20.7179 3.9922C20.5958 3.97614 20.4718 3.98429 20.3528 4.01617C20.2339 4.04805 20.1224 4.10305 20.0247 4.17803C19.927 4.253 19.8451 4.34648 19.7835 4.45312C19.722 4.55977 19.682 4.6775 19.666 4.79959C19.6499 4.92167 19.6581 5.04573 19.6899 5.16467C19.7218 5.28361 19.7768 5.3951 19.8518 5.49278C19.9268 5.59047 20.0202 5.67243 20.1269 5.73398L20.673 6.04922C20.6089 6.38841 20.6089 6.73659 20.673 7.07578L20.1269 7.39102C19.9481 7.49416 19.8083 7.65344 19.7292 7.84415C19.6502 8.03486 19.6363 8.24633 19.6897 8.44574C19.7431 8.64515 19.8609 8.82135 20.0247 8.947C20.1885 9.07264 20.3892 9.14071 20.5956 9.14062C20.7603 9.14125 20.9221 9.09796 21.0644 9.01523L21.6117 8.69883C21.8735 8.92357 22.1747 9.09798 22.4999 9.21328V9.84375C22.4999 10.0924 22.5987 10.3308 22.7745 10.5067C22.9503 10.6825 23.1888 10.7812 23.4374 10.7812C23.6861 10.7812 23.9245 10.6825 24.1004 10.5067C24.2762 10.3308 24.3749 10.0924 24.3749 9.84375V9.21328C24.7002 9.09798 25.0013 8.92357 25.2632 8.69883L25.8105 9.01523C25.9528 9.09796 26.1146 9.14125 26.2792 9.14062C26.4857 9.14071 26.6864 9.07264 26.8502 8.947C27.014 8.82135 27.1317 8.64515 27.1852 8.44574C27.2386 8.24633 27.2247 8.03486 27.1457 7.84415C27.0666 7.65344 26.9268 7.49416 26.748 7.39102ZM22.4999 6.5625C22.4999 6.37708 22.5549 6.19582 22.6579 6.04165C22.7609 5.88748 22.9074 5.76732 23.0787 5.69636C23.25 5.62541 23.4385 5.60684 23.6203 5.64301C23.8022 5.67919 23.9692 5.76848 24.1004 5.89959C24.2315 6.0307 24.3208 6.19775 24.3569 6.3796C24.3931 6.56146 24.3745 6.74996 24.3036 6.92127C24.2326 7.09257 24.1125 7.23899 23.9583 7.342C23.8041 7.44502 23.6229 7.5 23.4374 7.5C23.1888 7.5 22.9503 7.40123 22.7745 7.22541C22.5987 7.0496 22.4999 6.81114 22.4999 6.5625ZM25.9394 12.2004C25.6942 12.2414 25.4753 12.3782 25.3309 12.5806C25.1865 12.783 25.1285 13.0345 25.1695 13.2797C25.2646 13.8482 25.3124 14.4236 25.3124 15C25.3147 17.5244 24.3868 19.9612 22.7062 21.8449C21.6606 20.3298 20.1904 19.1576 18.4804 18.4758C19.3989 17.7523 20.0692 16.7606 20.398 15.6385C20.7268 14.5165 20.6977 13.3199 20.3149 12.2151C19.932 11.1103 19.2145 10.1523 18.2619 9.47425C17.3093 8.7962 16.1692 8.43185 14.9999 8.43185C13.8307 8.43185 12.6905 8.7962 11.738 9.47425C10.7854 10.1523 10.0678 11.1103 9.685 12.2151C9.30217 13.3199 9.27312 14.5165 9.6019 15.6385C9.93068 16.7606 10.6009 17.7523 11.5195 18.4758C9.80949 19.1576 8.33927 20.3298 7.29369 21.8449C5.975 20.3589 5.11362 18.5237 4.81312 16.5598C4.51261 14.5959 4.78579 12.5871 5.59979 10.7748C6.41379 8.96245 7.73396 7.42385 9.40157 6.34395C11.0692 5.26406 13.0132 4.68885 14.9999 4.6875C15.5763 4.68754 16.1517 4.73536 16.7203 4.83047C16.9644 4.86899 17.2138 4.80956 17.4143 4.6651C17.6149 4.52065 17.7502 4.30287 17.791 4.05912C17.8318 3.81537 17.7747 3.56538 17.6321 3.36353C17.4895 3.16167 17.273 3.02429 17.0296 2.98125C14.4837 2.55295 11.8674 2.94485 9.55873 4.10036C7.25001 5.25588 5.36826 7.11521 4.18516 9.40992C3.00205 11.7046 2.57883 14.3159 2.97659 16.8669C3.37435 19.4178 4.57251 21.7763 6.39808 23.6019C8.22365 25.4274 10.5822 26.6256 13.1331 27.0233C15.684 27.4211 18.2953 26.9979 20.59 25.8148C22.8847 24.6317 24.7441 22.7499 25.8996 20.4412C27.0551 18.1325 27.447 15.5163 27.0187 12.9703C26.9777 12.7251 26.8409 12.5062 26.6385 12.3618C26.4361 12.2174 26.1846 12.1594 25.9394 12.2004ZM11.2499 14.0625C11.2499 13.3208 11.4699 12.5958 11.8819 11.9791C12.294 11.3624 12.8797 10.8818 13.5649 10.598C14.2501 10.3141 15.0041 10.2399 15.7315 10.3846C16.459 10.5292 17.1271 10.8864 17.6516 11.4108C18.176 11.9353 18.5332 12.6035 18.6779 13.3309C18.8226 14.0583 18.7483 14.8123 18.4645 15.4976C18.1807 16.1828 17.7 16.7685 17.0833 17.1805C16.4666 17.5926 15.7416 17.8125 14.9999 17.8125C14.0054 17.8125 13.0516 17.4174 12.3483 16.7141C11.645 16.0109 11.2499 15.0571 11.2499 14.0625ZM8.68119 23.1445C9.35939 22.0838 10.2937 21.211 11.398 20.6063C12.5022 20.0017 13.741 19.6848 14.9999 19.6848C16.2589 19.6848 17.4976 20.0017 18.6019 20.6063C19.7062 21.211 20.6405 22.0838 21.3187 23.1445C19.5121 24.5496 17.2886 25.3124 14.9999 25.3124C12.7112 25.3124 10.4878 24.5496 8.68119 23.1445Z" fill="#FEFEFE"/>
</svg>
